<?xml version="1.0" encoding="UTF-8"?>
<!DOCTYPE svg PUBLIC "-//W3C//DTD SVG 1.1//EN" "http://www.w3.org/Graphics/SVG/1.1/DTD/svg11.dtd">
<svg xmlns="http://www.w3.org/2000/svg" version="1.1" width="500px" height="500px" style="shape-rendering:geometricPrecision; text-rendering:geometricPrecision; image-rendering:optimizeQuality; fill-rule:evenodd; clip-rule:evenodd" xmlns:xlink="http://www.w3.org/1999/xlink">
<g><path style="opacity:1" fill="#fefefe" d="M -0.5,-0.5 C 166.167,-0.5 332.833,-0.5 499.5,-0.5C 499.5,166.167 499.5,332.833 499.5,499.5C 332.833,499.5 166.167,499.5 -0.5,499.5C -0.5,332.833 -0.5,166.167 -0.5,-0.5 Z"/></g>
<g><path style="opacity:1" fill="#7c7c7c" d="M 423.5,202.5 C 402.833,202.5 382.167,202.5 361.5,202.5C 361.611,201.883 361.944,201.383 362.5,201C 382.167,200.333 401.833,200.333 421.5,201C 422.416,201.278 423.082,201.778 423.5,202.5 Z"/></g>
<g><path style="opacity:1" fill="#484848" d="M 361.5,202.5 C 382.167,202.5 402.833,202.5 423.5,202.5C 424.167,202.5 424.833,202.5 425.5,202.5C 425.737,203.791 425.404,204.791 424.5,205.5C 403.906,204.346 383.24,204.179 362.5,205C 358.473,209.197 353.473,210.697 347.5,209.5C 344.482,209.665 341.482,209.498 338.5,209C 337.584,208.722 336.918,208.222 336.5,207.5C 343.841,207.666 351.174,207.5 358.5,207C 360.141,205.871 361.141,204.371 361.5,202.5 Z"/></g>
<g><path style="opacity:1" fill="#7e7e7e" d="M 361.5,202.5 C 361.141,204.371 360.141,205.871 358.5,207C 351.174,207.5 343.841,207.666 336.5,207.5C 333.167,207.5 329.833,207.5 326.5,207.5C 256.792,207.173 187.125,207.507 117.5,208.5C 197.16,206.669 277.16,205.835 357.5,206C 358.705,204.624 360.038,203.458 361.5,202.5 Z"/></g>
<g><path style="opacity:1" fill="#7d7d7d" d="M 425.5,202.5 C 426.316,204.144 427.65,205.31 429.5,206C 447.338,206.168 465.005,206.668 482.5,207.5C 464.167,207.5 445.833,207.5 427.5,207.5C 425.973,207.573 424.973,206.906 424.5,205.5C 425.404,204.791 425.737,203.791 425.5,202.5 Z"/></g>
<g><path style="opacity:1" fill="#424242" d="M 326.5,207.5 C 324.162,209.04 321.495,209.706 318.5,209.5C 252.499,209.333 186.499,209.5 120.5,210C 119.619,210.708 118.953,211.542 118.5,212.5C 116.804,214.129 115.804,213.796 115.5,211.5C 115.427,209.973 116.094,208.973 117.5,208.5C 187.125,207.507 256.792,207.173 326.5,207.5 Z"/></g>
<g><path style="opacity:1" fill="#434343" d="M 427.5,207.5 C 445.833,207.5 464.167,207.5 482.5,207.5C 473.692,208.832 464.525,209.498 455,209.5C 445.475,209.498 436.308,208.832 427.5,207.5 Z"/></g>
<g><path style="opacity:1" fill="#e9e9e9" d="M 318.5,209.5 C 318.489,211.017 317.823,212.184 316.5,213C 277.833,213.333 239.167,213.667 200.5,214C 189.873,214.935 179.873,217.768 170.5,222.5C 170.5,219.5 170.5,216.5 170.5,213.5C 152.992,213.83 135.659,213.497 118.5,212.5C 118.953,211.542 119.619,210.708 120.5,210C 186.499,209.5 252.499,209.333 318.5,209.5 Z"/></g>
<g><path style="opacity:1" fill="#89868a" d="M 347.5,213.5 C 390.5,213.5 433.5,213.5 476.5,213.5C 476.5,218.167 476.5,222.833 476.5,227.5C 478.735,227.205 480.735,227.539 482.5,228.5C 480.167,228.5 477.833,228.5 475.5,228.5C 475.5,223.833 475.5,219.167 475.5,214.5C 471.847,214.877 468.347,214.877 465,214.5C 463.624,214.684 462.791,215.351 462.5,216.5C 461.167,216.5 459.833,216.5 458.5,216.5C 421.678,214.835 384.678,213.835 347.5,213.5 Z"/></g>
<g><path style="opacity:1" fill="#6c6b6b" d="M 326.5,207.5 C 329.833,207.5 333.167,207.5 336.5,207.5C 336.918,208.222 337.584,208.722 338.5,209C 341.482,209.498 344.482,209.665 347.5,209.5C 347.082,210.222 346.416,210.722 345.5,211C 346.381,211.708 347.047,212.542 347.5,213.5C 384.678,213.835 421.678,214.835 458.5,216.5C 423.498,216.333 388.498,216.5 353.5,217C 352.015,218.756 352.348,219.923 354.5,220.5C 356.472,224.236 357.472,228.236 357.5,232.5C 372.167,232.5 386.833,232.5 401.5,232.5C 401.5,250.5 401.5,268.5 401.5,286.5C 411.987,287.494 422.654,287.828 433.5,287.5C 433.5,269.167 433.5,250.833 433.5,232.5C 444.167,232.5 454.833,232.5 465.5,232.5C 465.821,227.305 465.487,222.305 464.5,217.5C 464.158,216.662 463.492,216.328 462.5,216.5C 462.791,215.351 463.624,214.684 465,214.5C 468.347,214.877 471.847,214.877 475.5,214.5C 475.5,219.167 475.5,223.833 475.5,228.5C 477.833,228.5 480.167,228.5 482.5,228.5C 482.804,229.15 483.137,229.817 483.5,230.5C 481.257,231.474 478.924,231.808 476.5,231.5C 476.784,234.777 476.451,237.943 475.5,241C 465.172,241.5 454.839,241.666 444.5,241.5C 444.5,244.167 444.5,246.833 444.5,249.5C 457.184,249.168 469.851,249.501 482.5,250.5C 482.833,251.167 483.167,251.833 483.5,252.5C 470.517,253.499 457.517,253.832 444.5,253.5C 444.5,259.5 444.5,265.5 444.5,271.5C 457.544,270.853 470.211,271.52 482.5,273.5C 469.456,272.853 456.789,273.52 444.5,275.5C 443.515,279.634 443.182,283.968 443.5,288.5C 425.833,288.5 408.167,288.5 390.5,288.5C 390.5,272.833 390.5,257.167 390.5,241.5C 380.167,241.5 369.833,241.5 359.5,241.5C 359.5,257.5 359.5,273.5 359.5,289.5C 341.5,289.5 323.5,289.5 305.5,289.5C 305.5,286.167 305.5,282.833 305.5,279.5C 295.993,283.946 285.993,287.112 275.5,289C 229.163,289.167 182.83,289.667 136.5,290.5C 134.599,292.006 132.932,293.673 131.5,295.5C 94.4127,295.483 57.0794,295.483 19.5,295.5C 55.6644,294.667 91.9977,294.167 128.5,294C 134.167,292.312 134.5,290.812 129.5,289.5C 109.818,289.631 90.1509,289.131 70.5,288C 59.6113,285.972 49.6113,281.972 40.5,276C 33.1742,275.5 25.8409,275.334 18.5,275.5C 18.5,274.167 18.5,272.833 18.5,271.5C 23.5,271.5 28.5,271.5 33.5,271.5C 32.3791,267.526 30.5457,263.86 28,260.5C 27.5034,258.19 27.3367,255.857 27.5,253.5C 24.5,253.5 21.5,253.5 18.5,253.5C 18.5,252.167 18.5,250.833 18.5,249.5C 21.5,249.5 24.5,249.5 27.5,249.5C 27.3379,247.473 27.5045,245.473 28,243.5C 30.1248,239.587 31.9582,235.587 33.5,231.5C 28.5,231.5 23.5,231.5 18.5,231.5C 18.5,230.167 18.5,228.833 18.5,227.5C 26.1739,227.666 33.8406,227.5 41.5,227C 52.1957,219.321 64.1957,214.988 77.5,214C 89.1667,213.667 100.833,213.333 112.5,213C 113.527,212.487 114.527,211.987 115.5,211.5C 115.804,213.796 116.804,214.129 118.5,212.5C 135.659,213.497 152.992,213.83 170.5,213.5C 170.5,216.5 170.5,219.5 170.5,222.5C 179.873,217.768 189.873,214.935 200.5,214C 239.167,213.667 277.833,213.333 316.5,213C 317.823,212.184 318.489,211.017 318.5,209.5C 321.495,209.706 324.162,209.04 326.5,207.5 Z"/></g>
<g><path style="opacity:1" fill="#5a874a" d="M 333.5,215.5 C 331.5,215.5 329.5,215.5 327.5,215.5C 327.97,214.307 328.97,213.64 330.5,213.5C 332.03,213.64 333.03,214.307 333.5,215.5 Z"/></g>
<g><path style="opacity:1" fill="#7fb164" d="M 458.5,216.5 C 459.833,216.5 461.167,216.5 462.5,216.5C 463.492,216.328 464.158,216.662 464.5,217.5C 427.833,217.5 391.167,217.5 354.5,217.5C 354.5,218.5 354.5,219.5 354.5,220.5C 352.348,219.923 352.015,218.756 353.5,217C 388.498,216.5 423.498,216.333 458.5,216.5 Z"/></g>
<g><path style="opacity:1" fill="#f8f9f7" d="M 158.5,216.5 C 158.5,221.5 158.5,226.5 158.5,231.5C 135.661,231.169 112.994,231.503 90.5,232.5C 72.1922,237.466 68.0256,248.133 78,264.5C 80.0795,266.123 82.2462,267.623 84.5,269C 109.274,270.138 133.941,270.971 158.5,271.5C 158.5,276.5 158.5,281.5 158.5,286.5C 128.776,287.033 99.1088,286.367 69.5,284.5C 51.2366,280.904 40.9033,269.904 38.5,251.5C 41.4929,235.997 50.4929,225.497 65.5,220C 69.0569,218.592 72.7235,217.592 76.5,217C 103.831,216.5 131.165,216.333 158.5,216.5 Z"/></g>
<g><path style="opacity:1" fill="#f8f9f7" d="M 306.5,228.5 C 305.596,229.209 305.263,230.209 305.5,231.5C 275.165,231.333 244.832,231.5 214.5,232C 213.263,232.232 212.263,232.732 211.5,233.5C 207.241,237.335 207.907,240.502 213.5,243C 234.167,243.333 254.833,243.667 275.5,244C 285.743,246.03 293.91,251.197 300,259.5C 301.458,269.053 297.958,276.22 289.5,281C 284.701,282.531 280.035,284.365 275.5,286.5C 244.839,287.667 214.172,287.833 183.5,287C 182.529,281.928 182.195,276.762 182.5,271.5C 208.502,271.667 234.502,271.5 260.5,271C 268.812,268.455 269.478,264.788 262.5,260C 242.167,259.667 221.833,259.333 201.5,259C 192.058,258.203 184.558,254.036 179,246.5C 174.56,237.765 176.06,230.265 183.5,224C 187.5,222 191.5,220 195.5,218C 212.283,216.862 229.116,216.362 246,216.5C 267.848,216.47 289.681,216.97 311.5,218C 307.808,220.55 306.142,224.05 306.5,228.5 Z"/></g>
<g><path style="opacity:1" fill="#4cde07" d="M 464.5,217.5 C 464.5,222.167 464.5,226.833 464.5,231.5C 453.986,231.172 443.653,231.506 433.5,232.5C 431.801,232.34 430.134,232.506 428.5,233C 429.448,233.483 430.448,233.649 431.5,233.5C 431.5,251.167 431.5,268.833 431.5,286.5C 421.5,286.5 411.5,286.5 401.5,286.5C 401.5,268.5 401.5,250.5 401.5,232.5C 387.308,231.784 372.975,231.117 358.5,230.5C 359.016,226.253 357.683,222.92 354.5,220.5C 354.5,219.5 354.5,218.5 354.5,217.5C 391.167,217.5 427.833,217.5 464.5,217.5 Z"/></g>
<g><path style="opacity:1" fill="#a8a8a8" d="M 158.5,216.5 C 159.488,221.64 159.821,226.974 159.5,232.5C 136.5,232.5 113.5,232.5 90.5,232.5C 112.994,231.503 135.661,231.169 158.5,231.5C 158.5,226.5 158.5,221.5 158.5,216.5 Z"/></g>
<g><path style="opacity:1" fill="#adacad" d="M 306.5,228.5 C 306.5,229.833 306.5,231.167 306.5,232.5C 274.809,232.196 243.142,232.53 211.5,233.5C 212.263,232.732 213.263,232.232 214.5,232C 244.832,231.5 275.165,231.333 305.5,231.5C 305.263,230.209 305.596,229.209 306.5,228.5 Z"/></g>
<g><path style="opacity:1" fill="#5ebb30" d="M 354.5,220.5 C 357.683,222.92 359.016,226.253 358.5,230.5C 372.975,231.117 387.308,231.784 401.5,232.5C 386.833,232.5 372.167,232.5 357.5,232.5C 357.472,228.236 356.472,224.236 354.5,220.5 Z"/></g>
<g><path style="opacity:1" fill="#5fbc32" d="M 464.5,217.5 C 465.487,222.305 465.821,227.305 465.5,232.5C 454.833,232.5 444.167,232.5 433.5,232.5C 443.653,231.506 453.986,231.172 464.5,231.5C 464.5,226.833 464.5,222.167 464.5,217.5 Z"/></g>
<g><path style="opacity:1" fill="#4ab921" d="M 327.5,215.5 C 329.5,215.5 331.5,215.5 333.5,215.5C 335.924,215.192 338.257,215.526 340.5,216.5C 342.843,218.57 345.509,219.903 348.5,220.5C 349.844,223.712 351.01,227.045 352,230.5C 352.663,235.537 352.496,240.537 351.5,245.5C 350.5,245.5 349.5,245.5 348.5,245.5C 348.741,248.034 347.741,249.7 345.5,250.5C 343.566,251.11 341.899,252.11 340.5,253.5C 335.5,253.5 330.5,253.5 325.5,253.5C 317.47,249.795 313.137,243.462 312.5,234.5C 313.963,229.841 315.296,225.174 316.5,220.5C 320.424,219.414 324.091,217.747 327.5,215.5 Z"/></g>
<g><path style="opacity:1" fill="#eaf4e5" d="M 326.5,220.5 C 330.514,220.334 334.514,220.501 338.5,221C 341.978,222.814 344.812,225.314 347,228.5C 349.426,241.69 344.092,249.023 331,250.5C 329.5,250.167 328,249.833 326.5,249.5C 314.585,239.718 314.585,230.051 326.5,220.5 Z"/></g>
<g><path style="opacity:1" fill="#87b55f" d="M 331.5,223.5 C 334.036,224.349 336.536,225.349 339,226.5C 344.864,235.745 342.697,242.078 332.5,245.5C 323.876,242.272 321.376,236.605 325,228.5C 327.394,226.914 329.561,225.248 331.5,223.5 Z"/></g>
<g><path style="opacity:1" fill="#f3f6ee" d="M 334.5,228.5 C 339.662,230.962 340.662,234.628 337.5,239.5C 329.022,242.355 325.356,239.355 326.5,230.5C 327.822,230.67 328.989,230.337 330,229.5C 330.333,231.167 330.667,232.833 331,234.5C 332.011,235.337 333.178,235.67 334.5,235.5C 334.5,233.167 334.5,230.833 334.5,228.5 Z"/></g>
<g><path style="opacity:1" fill="#fbfbfb" d="M 113.5,241.5 C 109.916,248.971 103.916,251.638 95.5,249.5C 91.107,249.491 87.107,248.824 83.5,247.5C 84.8811,243.964 87.5477,242.13 91.5,242C 98.8258,241.5 106.159,241.334 113.5,241.5 Z"/></g>
<g><path style="opacity:1" fill="#fafafa" d="M 83.5,253.5 C 92.1731,253.666 100.84,253.5 109.5,253C 113.668,249.998 117.335,246.498 120.5,242.5C 134.088,241.519 147.754,241.185 161.5,241.5C 161.756,243.937 162.423,246.271 163.5,248.5C 155.187,249.332 146.853,249.832 138.5,250C 134.844,253.656 131.177,257.323 127.5,261C 115.5,261.667 103.5,261.667 91.5,261C 87.2584,260.067 84.5918,257.567 83.5,253.5 Z"/></g>
<g><path style="opacity:1" fill="#e8e8e8" d="M 294.5,242.5 C 297.962,241.518 301.629,241.185 305.5,241.5C 305.799,243.604 305.466,245.604 304.5,247.5C 301.594,244.914 298.26,243.248 294.5,242.5 Z"/></g>
<g><path style="opacity:1" fill="#929292" d="M 113.5,241.5 C 115.099,241.232 116.432,241.566 117.5,242.5C 115.167,245.5 112.5,248.167 109.5,250.5C 100.5,250.5 91.5,250.5 82.5,250.5C 82.2627,249.209 82.596,248.209 83.5,247.5C 87.107,248.824 91.107,249.491 95.5,249.5C 103.916,251.638 109.916,248.971 113.5,241.5 Z"/></g>
<g><path style="opacity:1" fill="#434242" d="M 120.5,242.5 C 117.335,246.498 113.668,249.998 109.5,253C 100.84,253.5 92.1731,253.666 83.5,253.5C 82.9569,253.44 82.6236,253.107 82.5,252.5C 91.6577,251.833 100.658,251.167 109.5,250.5C 112.5,248.167 115.167,245.5 117.5,242.5C 118.652,241.375 119.652,241.375 120.5,242.5 Z"/></g>
<g><path style="opacity:1" fill="#404040" d="M 166.5,253.5 C 158.16,253.334 149.827,253.5 141.5,254C 138.669,255.666 136.336,257.832 134.5,260.5C 133.425,261.562 132.425,261.562 131.5,260.5C 133.984,257.516 136.65,254.682 139.5,252C 144,251.833 148.5,251.667 153,251.5C 157.886,251.507 162.386,252.174 166.5,253.5 Z"/></g>
<g><path style="opacity:1" fill="#f5f5f5" d="M 166.5,253.5 C 171.638,256.186 176.972,258.686 182.5,261C 166.328,261.828 150.328,261.661 134.5,260.5C 136.336,257.832 138.669,255.666 141.5,254C 149.827,253.5 158.16,253.334 166.5,253.5 Z"/></g>
<g><path style="opacity:1" fill="#53923d" d="M 325.5,253.5 C 330.5,253.5 335.5,253.5 340.5,253.5C 338.786,254.738 336.786,255.405 334.5,255.5C 331.123,255.932 328.123,255.265 325.5,253.5 Z"/></g>
<g><path style="opacity:1" fill="#4bdd08" d="M 347.5,286.5 C 337.5,286.5 327.5,286.5 317.5,286.5C 316.864,277.435 317.53,268.769 319.5,260.5C 319.833,260.5 320.167,260.5 320.5,260.5C 323.428,261.82 326.761,262.486 330.5,262.5C 334.018,262.498 337.351,262.165 340.5,261.5C 341.209,260.596 342.209,260.263 343.5,260.5C 343.833,260.5 344.167,260.5 344.5,260.5C 345.496,260.586 346.329,260.252 347,259.5C 347.5,268.494 347.666,277.494 347.5,286.5 Z"/></g>
<g><path style="opacity:1" fill="#5d894b" d="M 320.5,260.5 C 327.131,261.331 333.798,261.664 340.5,261.5C 337.351,262.165 334.018,262.498 330.5,262.5C 326.761,262.486 323.428,261.82 320.5,260.5 Z"/></g>
<g><path style="opacity:1" fill="#617850" d="M 319.5,257.5 C 318.167,257.5 316.833,257.5 315.5,257.5C 315.5,267.5 315.5,277.5 315.5,287.5C 314.506,277.013 314.172,266.346 314.5,255.5C 316.781,255.077 318.448,255.744 319.5,257.5 Z"/></g>
<g><path style="opacity:1" fill="#6db845" d="M 347.5,287.5 C 347.5,287.167 347.5,286.833 347.5,286.5C 347.666,277.494 347.5,268.494 347,259.5C 346.329,260.252 345.496,260.586 344.5,260.5C 345.048,258.468 346.381,257.468 348.5,257.5C 348.827,267.681 348.494,277.681 347.5,287.5 Z"/></g>
<g><path style="opacity:1" fill="#63705b" d="M 345.5,250.5 C 345.586,251.496 345.252,252.329 344.5,253C 346.107,252.981 347.774,252.815 349.5,252.5C 350.158,255.156 350.825,257.822 351.5,260.5C 350.214,267.496 350.214,274.496 351.5,281.5C 351.485,283.634 350.985,285.634 350,287.5C 349.023,288.774 348.189,288.774 347.5,287.5C 348.494,277.681 348.827,267.681 348.5,257.5C 346.381,257.468 345.048,258.468 344.5,260.5C 344.167,260.5 343.833,260.5 343.5,260.5C 343.5,258.833 343.5,257.167 343.5,255.5C 341.712,255.215 340.045,255.548 338.5,256.5C 341.321,257.842 341.154,258.508 338,258.5C 335.725,258.722 334.559,257.722 334.5,255.5C 336.786,255.405 338.786,254.738 340.5,253.5C 341.899,252.11 343.566,251.11 345.5,250.5 Z"/></g>
<g><path style="opacity:1" fill="#62a541" d="M 319.5,257.5 C 319.5,257.833 319.5,258.167 319.5,258.5C 318.5,258.5 317.5,258.5 316.5,258.5C 316.5,268.167 316.5,277.833 316.5,287.5C 316.167,287.5 315.833,287.5 315.5,287.5C 315.5,277.5 315.5,267.5 315.5,257.5C 316.833,257.5 318.167,257.5 319.5,257.5 Z"/></g>
<g><path style="opacity:1" fill="#4a4a4a" d="M 482.5,273.5 C 483.043,273.56 483.376,273.893 483.5,274.5C 470.517,275.499 457.517,275.832 444.5,275.5C 456.789,273.52 469.456,272.853 482.5,273.5 Z"/></g>
<g><path style="opacity:1" fill="#c8c8c8" d="M 158.5,271.5 C 159.488,276.64 159.821,281.974 159.5,287.5C 131.825,287.833 104.159,287.5 76.5,286.5C 74.0312,285.832 71.6979,285.165 69.5,284.5C 99.1088,286.367 128.776,287.033 158.5,286.5C 158.5,281.5 158.5,276.5 158.5,271.5 Z"/></g>
<g><path style="opacity:1" fill="#58c527" d="M 319.5,258.5 C 319.5,259.167 319.5,259.833 319.5,260.5C 317.53,268.769 316.864,277.435 317.5,286.5C 327.5,286.5 337.5,286.5 347.5,286.5C 347.5,286.833 347.5,287.167 347.5,287.5C 337.167,287.5 326.833,287.5 316.5,287.5C 316.5,277.833 316.5,268.167 316.5,258.5C 317.5,258.5 318.5,258.5 319.5,258.5 Z"/></g>
<g><path style="opacity:1" fill="#60be30" d="M 433.5,232.5 C 433.5,250.833 433.5,269.167 433.5,287.5C 422.654,287.828 411.987,287.494 401.5,286.5C 411.5,286.5 421.5,286.5 431.5,286.5C 431.5,268.833 431.5,251.167 431.5,233.5C 430.448,233.649 429.448,233.483 428.5,233C 430.134,232.506 431.801,232.34 433.5,232.5 Z"/></g>
<g><path style="opacity:1" fill="#a4a4a4" d="M 444.5,275.5 C 444.5,280.167 444.5,284.833 444.5,289.5C 426.326,289.83 408.326,289.497 390.5,288.5C 408.167,288.5 425.833,288.5 443.5,288.5C 443.182,283.968 443.515,279.634 444.5,275.5 Z"/></g>
<g><path style="opacity:1" fill="#878787" d="M 129.5,289.5 C 134.5,290.812 134.167,292.312 128.5,294C 91.9977,294.167 55.6644,294.667 19.5,295.5C 19.1667,295.5 18.8333,295.5 18.5,295.5C 54.4862,293.672 90.8195,292.838 127.5,293C 128.973,292.29 129.64,291.124 129.5,289.5 Z"/></g>
<g><path style="opacity:1" fill="#b07282" d="M 144.5,292.5 C 145.675,292.281 146.675,292.614 147.5,293.5C 145.955,294.452 144.288,294.785 142.5,294.5C 142.5,295.5 142.5,296.5 142.5,297.5C 147.833,297.833 147.833,298.167 142.5,298.5C 142.785,300.288 142.452,301.955 141.5,303.5C 140.513,300.232 140.18,296.898 140.5,293.5C 142.099,293.768 143.432,293.434 144.5,292.5 Z"/></g>
<g><path style="opacity:1" fill="#a43b53" d="M 411.5,294.5 C 415.908,293.373 416.908,293.373 414.5,294.5C 414.664,297.187 414.497,299.854 414,302.5C 414.053,299.325 413.22,296.658 411.5,294.5 Z"/></g>
<g><path style="opacity:1" fill="#4c4c4c" d="M 131.5,295.5 C 131.082,296.222 130.416,296.722 129.5,297C 92.8333,297.667 56.1667,297.667 19.5,297C 18.944,296.617 18.6107,296.117 18.5,295.5C 18.8333,295.5 19.1667,295.5 19.5,295.5C 57.0794,295.483 94.4127,295.483 131.5,295.5 Z"/></g>
<g><path style="opacity:1" fill="#9e5263" d="M 223.5,296.5 C 226.518,296.335 229.518,296.502 232.5,297C 233.76,298.814 233.76,300.647 232.5,302.5C 231.167,297.167 229.833,297.167 228.5,302.5C 227.571,301.311 227.238,299.978 227.5,298.5C 226.5,298.5 225.5,298.5 224.5,298.5C 224.657,299.873 224.49,301.207 224,302.5C 223.505,300.527 223.338,298.527 223.5,296.5 Z"/></g>
<g><path style="opacity:1" fill="#a4475e" d="M 298.5,296.5 C 303.895,295.555 305.561,297.555 303.5,302.5C 302.571,301.311 302.238,299.978 302.5,298.5C 301.5,298.5 300.5,298.5 299.5,298.5C 299.762,299.978 299.429,301.311 298.5,302.5C 297.481,300.54 297.481,298.54 298.5,296.5 Z"/></g>
<g><path style="opacity:1" fill="#a85165" d="M 433.5,293.5 C 435.048,293.821 435.715,294.821 435.5,296.5C 439.225,296.78 440.392,298.78 439,302.5C 438.51,301.207 438.343,299.873 438.5,298.5C 437.5,298.5 436.5,298.5 435.5,298.5C 435.785,300.288 435.452,301.955 434.5,303.5C 433.513,300.232 433.18,296.898 433.5,293.5 Z"/></g>
<g><path style="opacity:1" fill="#ad5067" d="M 149.5,296.5 C 152.689,297.515 155.856,297.515 159,296.5C 159.833,296.833 160.667,297.167 161.5,297.5C 160.311,298.429 158.978,298.762 157.5,298.5C 157.5,299.5 157.5,300.5 157.5,301.5C 160.481,301.544 160.814,301.877 158.5,302.5C 155.26,302.024 151.927,302.024 148.5,302.5C 148.517,300.435 148.85,298.435 149.5,296.5 Z"/></g>
<g><path style="opacity:1" fill="#c35a74" d="M 199.5,293.5 C 200.552,293.351 201.552,293.517 202.5,294C 201.314,296.748 200.314,299.581 199.5,302.5C 198.259,299.463 198.259,296.463 199.5,293.5 Z"/></g>
<g><path style="opacity:1" fill="#92354c" d="M 216.5,296.5 C 220.908,296.062 222.575,298.062 221.5,302.5C 219.5,302.5 217.5,302.5 215.5,302.5C 215.325,300.379 215.659,298.379 216.5,296.5 Z"/></g>
<g><path style="opacity:1" fill="#ad425c" d="M 273.5,292.5 C 274.978,292.238 276.311,292.571 277.5,293.5C 275.955,294.452 274.288,294.785 272.5,294.5C 272.5,295.5 272.5,296.5 272.5,297.5C 274.167,297.5 275.833,297.5 277.5,297.5C 277.5,299.167 277.5,300.833 277.5,302.5C 275.473,302.662 273.473,302.495 271.5,302C 273.134,301.506 274.801,301.34 276.5,301.5C 276.5,300.5 276.5,299.5 276.5,298.5C 272.062,299.575 270.062,297.908 270.5,293.5C 271.791,293.737 272.791,293.404 273.5,292.5 Z"/></g>
<g><path style="opacity:1" fill="#b86b7e" d="M 326.5,292.5 C 330.701,292.426 332.035,294.259 330.5,298C 329.207,298.49 327.873,298.657 326.5,298.5C 326.5,299.5 326.5,300.5 326.5,301.5C 328.39,301.703 329.89,301.037 331,299.5C 331.483,300.448 331.649,301.448 331.5,302.5C 329.167,302.5 326.833,302.5 324.5,302.5C 324.54,299.012 325.207,295.679 326.5,292.5 Z"/></g>
<g><path style="opacity:1" fill="#be637d" d="M 337.5,293.5 C 338.586,293.62 339.253,294.287 339.5,295.5C 338.936,297.819 338.436,300.153 338,302.5C 337.502,299.518 337.335,296.518 337.5,293.5 Z"/></g>
<g><path style="opacity:1" fill="#ab445b" d="M 349.5,293.5 C 350.552,293.351 351.552,293.517 352.5,294C 349.901,301.225 348.901,301.058 349.5,293.5 Z"/></g>
<g><path style="opacity:1" fill="#fee9ef" d="M 216.5,298.5 C 217.5,298.5 218.5,298.5 219.5,298.5C 219.5,299.5 219.5,300.5 219.5,301.5C 218.5,301.5 217.5,301.5 216.5,301.5C 216.5,300.5 216.5,299.5 216.5,298.5 Z"/></g>
<g><path style="opacity:1" fill="#b05169" d="M 290.5,296.5 C 292.5,296.5 294.5,296.5 296.5,296.5C 296.167,298.5 295.833,300.5 295.5,302.5C 293.833,302.5 292.167,302.5 290.5,302.5C 290.5,300.5 290.5,298.5 290.5,296.5 Z"/></g>
<g><path style="opacity:1" fill="#bf4d6b" d="M 384.5,294.5 C 385.748,295.334 386.415,296.667 386.5,298.5C 386.167,299.833 385.833,301.167 385.5,302.5C 384.52,299.914 384.187,297.247 384.5,294.5 Z"/></g>
<g><path style="opacity:1" fill="#993b52" d="M 427.5,296.5 C 432.833,297.167 432.833,297.833 427.5,298.5C 427.5,299.5 427.5,300.5 427.5,301.5C 431.172,302.045 430.838,302.378 426.5,302.5C 426.325,300.379 426.659,298.379 427.5,296.5 Z"/></g>
<g><path style="opacity:1" fill="#ad596f" d="M 449.5,296.5 C 454.5,295.5 456.5,297.5 455.5,302.5C 450.048,303.429 448.048,301.429 449.5,296.5 Z"/></g>
<g><path style="opacity:1" fill="#be5e79" d="M 456.5,293.5 C 457.765,294.514 458.431,296.014 458.5,298C 458.167,299.5 457.833,301 457.5,302.5C 456.516,299.572 456.183,296.572 456.5,293.5 Z"/></g>
<g><path style="opacity:1" fill="#9f2043" d="M 468.5,297.5 C 469.919,296.549 471.585,296.216 473.5,296.5C 473.664,299.187 473.497,301.854 473,304.5C 471.384,305.801 469.884,305.801 468.5,304.5C 469.791,304.737 470.791,304.404 471.5,303.5C 472.341,301.621 472.675,299.621 472.5,297.5C 471.167,297.5 469.833,297.5 468.5,297.5 Z"/></g>
<g><path style="opacity:1" fill="#9c4f63" d="M 163.5,296.5 C 164.451,297.919 164.784,299.585 164.5,301.5C 165.5,301.5 166.5,301.5 167.5,301.5C 167.215,299.712 167.548,298.045 168.5,296.5C 170.561,301.445 168.895,303.445 163.5,302.5C 163.5,300.5 163.5,298.5 163.5,296.5 Z"/></g>
<g><path style="opacity:1" fill="#c998a6" d="M 170.5,293.5 C 171.777,294.694 172.444,296.36 172.5,298.5C 172.167,300.167 171.833,301.833 171.5,303.5C 170.513,300.232 170.18,296.898 170.5,293.5 Z"/></g>
<g><path style="opacity:1" fill="#994e5e" d="M 175.5,293.5 C 176.249,294.531 176.915,295.698 177.5,297C 176.887,299.147 176.221,301.314 175.5,303.5C 174.249,300.126 174.249,296.793 175.5,293.5 Z"/></g>
<g><path style="opacity:1" fill="#ab435d" d="M 178.5,296.5 C 179.712,297.23 180.712,298.23 181.5,299.5C 182.333,298.5 183.167,297.5 184,296.5C 183.436,299.526 182.436,302.526 181,305.5C 180.605,302.348 179.772,299.348 178.5,296.5 Z"/></g>
<g><path style="opacity:1" fill="#a75369" d="M 191.5,296.5 C 196.5,295.5 198.5,297.5 197.5,302.5C 195.5,302.5 193.5,302.5 191.5,302.5C 191.5,300.5 191.5,298.5 191.5,296.5 Z"/></g>
<g><path style="opacity:1" fill="#ad4059" d="M 255.5,296.5 C 256.833,296.5 258.167,296.5 259.5,296.5C 259.5,297.833 259.5,299.167 259.5,300.5C 254.206,300.682 254.206,301.182 259.5,302C 258.241,302.982 256.908,303.315 255.5,303C 254.232,300.837 254.232,298.67 255.5,296.5 Z"/></g>
<g><path style="opacity:1" fill="#a76374" d="M 305.5,296.5 C 307.199,296.34 308.866,296.506 310.5,297C 309.552,297.483 308.552,297.649 307.5,297.5C 307.5,298.833 307.5,300.167 307.5,301.5C 308.552,301.351 309.552,301.517 310.5,302C 308.866,302.494 307.199,302.66 305.5,302.5C 305.5,300.5 305.5,298.5 305.5,296.5 Z"/></g>
<g><path style="opacity:1" fill="#954157" d="M 400.5,296.5 C 405.068,296.083 406.568,298.083 405,302.5C 404.51,301.207 404.343,299.873 404.5,298.5C 403.167,298.5 401.833,298.5 400.5,298.5C 399.524,302.946 399.524,302.279 400.5,296.5 Z"/></g>
<g><path style="opacity:1" fill="#aa465d" d="M 419.5,296.5 C 421.977,296.051 423.977,296.717 425.5,298.5C 424.286,300.069 422.619,300.902 420.5,301C 424.226,302.043 423.893,302.543 419.5,302.5C 419.5,300.5 419.5,298.5 419.5,296.5 Z"/></g>
<g><path style="opacity:1" fill="#9d4b5f" d="M 441.5,296.5 C 446.895,295.555 448.561,297.555 446.5,302.5C 445.571,301.311 445.238,299.978 445.5,298.5C 444.5,298.5 443.5,298.5 442.5,298.5C 442.657,299.873 442.49,301.207 442,302.5C 441.505,300.527 441.338,298.527 441.5,296.5 Z"/></g>
<g><path style="opacity:1" fill="#e4bfca" d="M 468.5,297.5 C 469.833,297.5 471.167,297.5 472.5,297.5C 472.675,299.621 472.341,301.621 471.5,303.5C 469.455,302.077 468.455,300.077 468.5,297.5 Z"/></g>
<g><path style="opacity:1" fill="#fcf1f4" d="M 192.5,298.5 C 193.5,298.5 194.5,298.5 195.5,298.5C 195.5,299.5 195.5,300.5 195.5,301.5C 194.5,301.5 193.5,301.5 192.5,301.5C 192.5,300.5 192.5,299.5 192.5,298.5 Z"/></g>
<g><path style="opacity:1" fill="#a05467" d="M 234.5,296.5 C 236.5,296.5 238.5,296.5 240.5,296.5C 240.5,298.5 240.5,300.5 240.5,302.5C 239.448,302.649 238.448,302.483 237.5,302C 239.107,300.951 239.773,299.451 239.5,297.5C 238.5,297.5 237.5,297.5 236.5,297.5C 236.808,299.924 236.474,302.257 235.5,304.5C 234.52,301.914 234.187,299.247 234.5,296.5 Z"/></g>
<g><path style="opacity:1" fill="#ac3d5b" d="M 250.5,294.5 C 252.599,296.83 252.766,299.497 251,302.5C 250.503,299.854 250.336,297.187 250.5,294.5 Z"/></g>
<g><path style="opacity:1" fill="#9e4a61" d="M 262.5,296.5 C 263.552,296.351 264.552,296.517 265.5,297C 264.134,298.6 263.134,300.433 262.5,302.5C 262.08,300.674 262.08,298.674 262.5,296.5 Z"/></g>
<g><path style="opacity:1" fill="#b67d8b" d="M 280.5,296.5 C 282.288,296.215 283.955,296.548 285.5,297.5C 284.311,298.429 282.978,298.762 281.5,298.5C 281.5,299.5 281.5,300.5 281.5,301.5C 282.552,301.351 283.552,301.517 284.5,302C 282.866,302.494 281.199,302.66 279.5,302.5C 279.325,300.379 279.659,298.379 280.5,296.5 Z"/></g>
<g><path style="opacity:1" fill="#a13753" d="M 313.5,296.5 C 319.557,297.088 319.89,298.588 314.5,301C 315.5,301.333 316.5,301.667 317.5,302C 315.866,302.494 314.199,302.66 312.5,302.5C 312.325,300.379 312.659,298.379 313.5,296.5 Z"/></g>
<g><path style="opacity:1" fill="#ab566b" d="M 341.5,296.5 C 346.895,295.555 348.561,297.555 346.5,302.5C 345.571,301.311 345.238,299.978 345.5,298.5C 344.5,298.5 343.5,298.5 342.5,298.5C 342.657,299.873 342.49,301.207 342,302.5C 341.505,300.527 341.338,298.527 341.5,296.5 Z"/></g>
<g><path style="opacity:1" fill="#ae6376" d="M 353.5,296.5 C 356.044,296.104 358.211,296.771 360,298.5C 360.826,296.595 361.993,296.261 363.5,297.5C 362.137,298.893 361.304,300.559 361,302.5C 358.315,302.173 355.482,302.173 352.5,302.5C 352.325,300.379 352.659,298.379 353.5,296.5 Z"/></g>
<g><path style="opacity:1" fill="#e6d0d6" d="M 354.5,297.5 C 355.5,297.5 356.5,297.5 357.5,297.5C 357.5,298.833 357.5,300.167 357.5,301.5C 356.5,301.5 355.5,301.5 354.5,301.5C 354.5,300.167 354.5,298.833 354.5,297.5 Z"/></g>
<g><path style="opacity:1" fill="#9b3450" d="M 365.5,296.5 C 368.5,296.5 371.5,296.5 374.5,296.5C 374.662,298.527 374.495,300.527 374,302.5C 373.51,301.207 373.343,299.873 373.5,298.5C 372.5,298.5 371.5,298.5 370.5,298.5C 369.997,303.5 369.664,303.167 369.5,297.5C 368.5,297.5 367.5,297.5 366.5,297.5C 366.785,299.288 366.452,300.955 365.5,302.5C 364.306,300.484 364.306,298.484 365.5,296.5 Z"/></g>
<g><path style="opacity:1" fill="#b4536a" d="M 377.5,296.5 C 379.167,296.5 380.833,296.5 382.5,296.5C 382.5,298.5 382.5,300.5 382.5,302.5C 380.5,302.5 378.5,302.5 376.5,302.5C 376.833,300.5 377.167,298.5 377.5,296.5 Z"/></g>
<g><path style="opacity:1" fill="#af4d66" d="M 392.5,296.5 C 397.5,295.5 399.5,297.5 398.5,302.5C 396.167,302.5 393.833,302.5 391.5,302.5C 391.517,300.435 391.85,298.435 392.5,296.5 Z"/></g>
<g><path style="opacity:1" fill="#fdf8f9" d="M 393.5,298.5 C 394.5,298.5 395.5,298.5 396.5,298.5C 396.5,299.5 396.5,300.5 396.5,301.5C 395.5,301.5 394.5,301.5 393.5,301.5C 393.5,300.5 393.5,299.5 393.5,298.5 Z"/></g>
<g><path style="opacity:1" fill="#fbf5f6" d="M 450.5,298.5 C 451.5,298.5 452.5,298.5 453.5,298.5C 453.5,299.5 453.5,300.5 453.5,301.5C 452.5,301.5 451.5,301.5 450.5,301.5C 450.5,300.5 450.5,299.5 450.5,298.5 Z"/></g>
<g><path style="opacity:1" fill="#9c495c" d="M 207.5,293.5 C 209.527,293.338 211.527,293.505 213.5,294C 211.866,294.494 210.199,294.66 208.5,294.5C 208.5,296.833 208.5,299.167 208.5,301.5C 212.588,301.218 213.088,301.885 210,303.5C 209.228,303.355 208.561,303.022 208,302.5C 207.502,299.518 207.335,296.518 207.5,293.5 Z"/></g>
<g><path style="opacity:1" fill="#a64b61" d="M 242.5,296.5 C 244.256,297.552 244.923,299.219 244.5,301.5C 245.5,301.5 246.5,301.5 247.5,301.5C 247.34,299.801 247.506,298.134 248,296.5C 248.495,298.473 248.662,300.473 248.5,302.5C 243.074,304.402 241.074,302.402 242.5,296.5 Z"/></g>
<g><path style="opacity:1" fill="#b16277" d="M 468.5,297.5 C 468.455,300.077 469.455,302.077 471.5,303.5C 470.791,304.404 469.791,304.737 468.5,304.5C 468.585,303.005 467.919,302.005 466.5,301.5C 464.591,302.348 462.591,302.682 460.5,302.5C 460.5,300.5 460.5,298.5 460.5,296.5C 463.044,296.104 465.211,296.771 467,298.5C 467.383,297.944 467.883,297.611 468.5,297.5 Z"/></g>
<g><path style="opacity:1" fill="#f9ecf0" d="M 461.5,298.5 C 462.5,298.5 463.5,298.5 464.5,298.5C 464.5,299.5 464.5,300.5 464.5,301.5C 463.5,301.5 462.5,301.5 461.5,301.5C 461.5,300.5 461.5,299.5 461.5,298.5 Z"/></g>
<g><path style="opacity:1" fill="#b3536b" d="M 475.5,296.5 C 477.086,298.462 478.752,299.629 480.5,300C 479.888,302.058 478.888,303.891 477.5,305.5C 477.344,302.622 476.677,299.622 475.5,296.5 Z"/></g>
</svg>
