<?xml version="1.0" encoding="UTF-8"?>
<!DOCTYPE svg PUBLIC "-//W3C//DTD SVG 1.1//EN" "http://www.w3.org/Graphics/SVG/1.1/DTD/svg11.dtd">
<svg xmlns="http://www.w3.org/2000/svg" version="1.1" width="500px" height="500px" style="shape-rendering:geometricPrecision; text-rendering:geometricPrecision; image-rendering:optimizeQuality; fill-rule:evenodd; clip-rule:evenodd" xmlns:xlink="http://www.w3.org/1999/xlink">
<g><path style="opacity:1" fill="#fefefe" d="M -0.5,-0.5 C 166.167,-0.5 332.833,-0.5 499.5,-0.5C 499.5,166.167 499.5,332.833 499.5,499.5C 332.833,499.5 166.167,499.5 -0.5,499.5C -0.5,332.833 -0.5,166.167 -0.5,-0.5 Z"/></g>
<g><path style="opacity:1" fill="#3f3f3f" d="M 190.5,128.5 C 192.199,128.34 193.866,128.506 195.5,129C 192.332,129.582 191.999,130.582 194.5,132C 193.23,132.9 192.23,134.066 191.5,135.5C 190.526,133.257 190.192,130.924 190.5,128.5 Z"/></g>
<g><path style="opacity:1" fill="#383838" d="M 253.5,128.5 C 255.199,128.34 256.866,128.506 258.5,129C 255.332,129.582 254.999,130.582 257.5,132C 254.999,133.418 255.332,134.418 258.5,135C 256.866,135.494 255.199,135.66 253.5,135.5C 253.5,133.167 253.5,130.833 253.5,128.5 Z"/></g>
<g><path style="opacity:1" fill="#434343" d="M 292.5,128.5 C 294.048,128.821 294.715,129.821 294.5,131.5C 295.5,131.5 296.5,131.5 297.5,131.5C 298.274,127.556 298.941,127.723 299.5,132C 298.941,136.277 298.274,136.444 297.5,132.5C 296.5,132.5 295.5,132.5 294.5,132.5C 294.719,133.675 294.386,134.675 293.5,135.5C 292.526,133.257 292.192,130.924 292.5,128.5 Z"/></g>
<g><path style="opacity:1" fill="#1f1f1f" d="M 245.5,129.5 C 246.946,128.387 248.613,128.22 250.5,129C 248.901,130.786 248.067,132.953 248,135.5C 247.998,132.949 247.164,130.949 245.5,129.5 Z"/></g>
<g><path style="opacity:1" fill="#272727" d="M 261.5,128.5 C 262.833,128.5 264.167,128.5 265.5,128.5C 265.705,131.114 265.705,133.448 265.5,135.5C 263.793,131.864 262.626,131.864 262,135.5C 261.503,133.19 261.337,130.857 261.5,128.5 Z"/></g>
<g><path style="opacity:1" fill="#fafafa" d="M 262.5,129.5 C 264.337,129.639 264.67,130.306 263.5,131.5C 262.702,131.043 262.369,130.376 262.5,129.5 Z"/></g>
<g><path style="opacity:1" fill="#212121" d="M 275.5,132.5 C 274.833,132.5 274.167,132.5 273.5,132.5C 273.5,131.167 273.5,129.833 273.5,128.5C 276.797,128.329 277.131,128.995 274.5,130.5C 274.863,131.183 275.196,131.85 275.5,132.5 Z"/></g>
<g><path style="opacity:1" fill="#292929" d="M 302.5,128.5 C 308.158,127.679 309.825,129.846 307.5,135C 305.866,135.494 304.199,135.66 302.5,135.5C 302.5,133.167 302.5,130.833 302.5,128.5 Z"/></g>
<g><path style="opacity:1" fill="#e8e8e8" d="M 303.5,129.5 C 307.161,129.35 308.161,130.85 306.5,134C 305.552,134.483 304.552,134.649 303.5,134.5C 303.5,132.833 303.5,131.167 303.5,129.5 Z"/></g>
<g><path style="opacity:1" fill="#282828" d="M 198.5,128.5 C 204.158,127.679 205.825,129.846 203.5,135C 198.279,135.61 196.612,133.443 198.5,128.5 Z"/></g>
<g><path style="opacity:1" fill="#f4f4f4" d="M 199.5,129.5 C 203.161,129.35 204.161,130.85 202.5,134C 201.551,134.617 200.718,134.451 200,133.5C 199.51,132.207 199.343,130.873 199.5,129.5 Z"/></g>
<g><path style="opacity:1" fill="#3e3e3e" d="M 219.5,128.5 C 221.173,129.343 222.34,130.676 223,132.5C 223.941,130.939 225.108,129.605 226.5,128.5C 227.833,130.833 227.833,133.167 226.5,135.5C 225.749,134.624 225.249,133.624 225,132.5C 223.314,135.022 221.981,134.689 221,131.5C 220.667,132.833 220.333,134.167 220,135.5C 219.503,133.19 219.337,130.857 219.5,128.5 Z"/></g>
<g><path style="opacity:1" fill="#222222" d="M 211.5,131.5 C 212.958,136.255 212.291,136.589 209.5,132.5C 208.749,133.376 208.249,134.376 208,135.5C 207.503,133.19 207.337,130.857 207.5,128.5C 209.167,128.5 210.833,128.5 212.5,128.5C 212.737,129.791 212.404,130.791 211.5,131.5 Z"/></g>
<g><path style="opacity:1" fill="#c9c9c9" d="M 211.5,131.5 C 210.325,131.719 209.325,131.386 208.5,130.5C 210.052,129.202 211.052,129.535 211.5,131.5 Z"/></g>
<g><path style="opacity:1" fill="#363636" d="M 285.5,128.5 C 288.95,127.756 290.616,129.09 290.5,132.5C 289.167,132.5 287.833,132.5 286.5,132.5C 286.649,133.552 286.483,134.552 286,135.5C 285.503,133.19 285.337,130.857 285.5,128.5 Z"/></g>
<g><path style="opacity:1" fill="#f2f2f2" d="M 286.5,129.5 C 288.337,129.639 288.67,130.306 287.5,131.5C 286.702,131.043 286.369,130.376 286.5,129.5 Z"/></g>
<g><path style="opacity:1" fill="#3b3b3b" d="M 232.5,128.5 C 233.497,128.47 234.164,128.97 234.5,130C 235.504,131.798 236.004,133.632 236,135.5C 235.261,134.426 234.261,133.759 233,133.5C 231.943,134.627 230.777,135.127 229.5,135C 230.406,132.779 231.406,130.612 232.5,128.5 Z"/></g>
<g><path style="opacity:1" fill="#929292" d="M 273.5,132.5 C 274.167,132.5 274.833,132.5 275.5,132.5C 275.5,133.833 274.833,134.5 273.5,134.5C 272.167,133.833 272.167,133.167 273.5,132.5 Z"/></g>
<g><path style="opacity:1" fill="#414141" d="M 239.5,128.5 C 243.893,128.457 244.226,128.957 240.5,130C 244.758,133.101 244.424,134.768 239.5,135C 240.308,134.692 240.975,134.192 241.5,133.5C 238.807,132.468 238.14,130.802 239.5,128.5 Z"/></g>
<g><path style="opacity:1" fill="#474747" d="M 273.5,134.5 C 274.833,134.5 275.5,133.833 275.5,132.5C 276.496,132.586 277.329,132.252 278,131.5C 278.49,132.793 278.657,134.127 278.5,135.5C 276.585,135.784 274.919,135.451 273.5,134.5 Z"/></g>
<g><path style="opacity:1" fill="#060606" d="M 213.5,163.5 C 227.188,160.546 233.855,165.879 233.5,179.5C 230.167,179.5 226.833,179.5 223.5,179.5C 223.664,176.813 223.497,174.146 223,171.5C 220.67,169.968 218.67,170.302 217,172.5C 216.333,182.167 216.333,191.833 217,201.5C 219.333,204.167 221.667,204.167 224,201.5C 224.498,198.518 224.665,195.518 224.5,192.5C 223.167,192.5 221.833,192.5 220.5,192.5C 220.5,190.5 220.5,188.5 220.5,186.5C 224.833,186.5 229.167,186.5 233.5,186.5C 233.5,194.5 233.5,202.5 233.5,210.5C 231.167,210.5 228.833,210.5 226.5,210.5C 226.649,209.448 226.483,208.448 226,207.5C 217.042,214.164 210.709,212.164 207,201.5C 206.333,191.5 206.333,181.5 207,171.5C 208.305,168.039 210.471,165.372 213.5,163.5 Z"/></g>
<g><path style="opacity:1" fill="#050505" d="M 78.5,163.5 C 84.8421,163.334 91.1754,163.5 97.5,164C 105.806,167.454 108.639,173.62 106,182.5C 102.347,189.572 96.5141,192.239 88.5,190.5C 88.5,197.167 88.5,203.833 88.5,210.5C 85.1667,210.5 81.8333,210.5 78.5,210.5C 78.5,194.833 78.5,179.167 78.5,163.5 Z"/></g>
<g><path style="opacity:1" fill="#090909" d="M 303.5,163.5 C 306.5,163.5 309.5,163.5 312.5,163.5C 312.5,179.167 312.5,194.833 312.5,210.5C 308.889,210.956 305.556,210.289 302.5,208.5C 296.385,212.186 291.885,210.852 289,204.5C 288.099,196.421 288.432,188.421 290,180.5C 293.453,175.911 297.62,175.245 302.5,178.5C 303.494,173.544 303.827,168.544 303.5,163.5 Z"/></g>
<g><path style="opacity:1" fill="#9f9f9f" d="M 178.5,177.5 C 176.833,177.5 175.167,177.5 173.5,177.5C 173.5,174.167 173.5,170.833 173.5,167.5C 170.5,167.5 167.5,167.5 164.5,167.5C 164.5,170.833 164.5,174.167 164.5,177.5C 163.5,177.5 162.5,177.5 161.5,177.5C 161.5,179.5 161.5,181.5 161.5,183.5C 160.532,181.393 160.198,179.059 160.5,176.5C 161.5,176.5 162.5,176.5 163.5,176.5C 163.5,173.167 163.5,169.833 163.5,166.5C 167.167,166.5 170.833,166.5 174.5,166.5C 174.5,169.833 174.5,173.167 174.5,176.5C 176.099,176.232 177.432,176.566 178.5,177.5 Z"/></g>
<g><path style="opacity:1" fill="#020202" d="M 178.5,177.5 C 178.5,179.5 178.5,181.5 178.5,183.5C 176.833,183.5 175.167,183.5 173.5,183.5C 173.177,190.022 173.51,196.355 174.5,202.5C 175.568,203.434 176.901,203.768 178.5,203.5C 178.5,205.833 178.5,208.167 178.5,210.5C 174.089,210.979 169.922,210.312 166,208.5C 164.562,200.277 164.062,191.943 164.5,183.5C 163.5,183.5 162.5,183.5 161.5,183.5C 161.5,181.5 161.5,179.5 161.5,177.5C 162.5,177.5 163.5,177.5 164.5,177.5C 164.5,174.167 164.5,170.833 164.5,167.5C 167.5,167.5 170.5,167.5 173.5,167.5C 173.5,170.833 173.5,174.167 173.5,177.5C 175.167,177.5 176.833,177.5 178.5,177.5 Z"/></g>
<g><path style="opacity:1" fill="#9f9f9f" d="M 390.5,177.5 C 388.833,177.5 387.167,177.5 385.5,177.5C 385.5,174.167 385.5,170.833 385.5,167.5C 382.5,167.5 379.5,167.5 376.5,167.5C 376.5,170.833 376.5,174.167 376.5,177.5C 375.5,177.5 374.5,177.5 373.5,177.5C 373.5,179.5 373.5,181.5 373.5,183.5C 372.532,181.393 372.198,179.059 372.5,176.5C 373.5,176.5 374.5,176.5 375.5,176.5C 375.5,173.167 375.5,169.833 375.5,166.5C 379.167,166.5 382.833,166.5 386.5,166.5C 386.5,169.833 386.5,173.167 386.5,176.5C 388.099,176.232 389.432,176.566 390.5,177.5 Z"/></g>
<g><path style="opacity:1" fill="#020202" d="M 390.5,177.5 C 390.5,179.5 390.5,181.5 390.5,183.5C 388.833,183.5 387.167,183.5 385.5,183.5C 385.177,190.022 385.51,196.355 386.5,202.5C 387.568,203.434 388.901,203.768 390.5,203.5C 390.5,205.833 390.5,208.167 390.5,210.5C 386.089,210.979 381.922,210.312 378,208.5C 376.562,200.277 376.062,191.943 376.5,183.5C 375.5,183.5 374.5,183.5 373.5,183.5C 373.5,181.5 373.5,179.5 373.5,177.5C 374.5,177.5 375.5,177.5 376.5,177.5C 376.5,174.167 376.5,170.833 376.5,167.5C 379.5,167.5 382.5,167.5 385.5,167.5C 385.5,170.833 385.5,174.167 385.5,177.5C 387.167,177.5 388.833,177.5 390.5,177.5 Z"/></g>
<g><path style="opacity:1" fill="#a2a2a2" d="M 94.5,171.5 C 92.8333,171.5 91.1667,171.5 89.5,171.5C 89.5,175.5 89.5,179.5 89.5,183.5C 88.5151,179.366 88.1818,175.032 88.5,170.5C 90.7354,170.205 92.7354,170.539 94.5,171.5 Z"/></g>
<g><path style="opacity:1" fill="#fafafa" d="M 94.5,171.5 C 95.1174,171.611 95.6174,171.944 96,172.5C 96.6667,175.5 96.6667,178.5 96,181.5C 94.2111,183.229 92.0444,183.896 89.5,183.5C 89.5,179.5 89.5,175.5 89.5,171.5C 91.1667,171.5 92.8333,171.5 94.5,171.5 Z"/></g>
<g><path style="opacity:1" fill="#050505" d="M 117.5,176.5 C 123.941,175.476 129.108,177.476 133,182.5C 133.901,190.579 133.568,198.579 132,206.5C 130.786,208.049 129.286,209.215 127.5,210C 123.833,210.667 120.167,210.667 116.5,210C 113.572,208.74 111.739,206.573 111,203.5C 110.333,196.5 110.333,189.5 111,182.5C 112.494,179.686 114.66,177.686 117.5,176.5 Z"/></g>
<g><path style="opacity:1" fill="#0c0c0c" d="M 144.5,176.5 C 151.236,175.628 155.903,178.294 158.5,184.5C 155.298,188.344 152.632,188.177 150.5,184C 149.207,183.51 147.873,183.343 146.5,183.5C 146.343,184.873 146.51,186.207 147,187.5C 150.966,190.464 154.633,193.797 158,197.5C 160.54,205.812 157.373,210.146 148.5,210.5C 143.058,210.946 139.392,208.613 137.5,203.5C 140.656,199.374 143.656,199.54 146.5,204C 147.793,204.49 149.127,204.657 150.5,204.5C 148.666,199.822 145.5,196.156 141,193.5C 135.52,186.367 136.687,180.7 144.5,176.5 Z"/></g>
<g><path style="opacity:1" fill="#626262" d="M 249.5,177.5 C 246.5,177.5 243.5,177.5 240.5,177.5C 240.5,188.5 240.5,199.5 240.5,210.5C 239.505,199.346 239.172,188.012 239.5,176.5C 243.042,176.187 246.375,176.521 249.5,177.5 Z"/></g>
<g><path style="opacity:1" fill="#0b0b0b" d="M 240.5,210.5 C 240.5,199.5 240.5,188.5 240.5,177.5C 243.5,177.5 246.5,177.5 249.5,177.5C 249.343,178.873 249.51,180.207 250,181.5C 251.41,178.211 253.91,176.544 257.5,176.5C 257.5,179.5 257.5,182.5 257.5,185.5C 254.728,185.22 252.228,185.887 250,187.5C 249.5,195.159 249.334,202.826 249.5,210.5C 246.5,210.5 243.5,210.5 240.5,210.5 Z"/></g>
<g><path style="opacity:1" fill="#0b0b0b" d="M 268.5,176.5 C 274.328,175.497 279.161,177.164 283,181.5C 283.18,191.077 283.68,200.577 284.5,210C 281.518,210.498 278.518,210.665 275.5,210.5C 275.657,209.127 275.49,207.793 275,206.5C 274.535,207.931 273.701,209.097 272.5,210C 263.237,211.698 259.737,207.865 262,198.5C 264.922,193.952 269.089,191.285 274.5,190.5C 274.5,188.167 274.5,185.833 274.5,183.5C 271.09,183.384 269.756,185.05 270.5,188.5C 267.5,188.5 264.5,188.5 261.5,188.5C 261.796,183.233 264.129,179.233 268.5,176.5 Z"/></g>
<g><path style="opacity:1" fill="#010101" d="M 318.5,177.5 C 321.5,177.5 324.5,177.5 327.5,177.5C 327.5,186.5 327.5,195.5 327.5,204.5C 329.144,204.714 330.644,204.38 332,203.5C 332.5,194.84 332.666,186.173 332.5,177.5C 335.5,177.5 338.5,177.5 341.5,177.5C 341.5,188.5 341.5,199.5 341.5,210.5C 338.5,210.5 335.5,210.5 332.5,210.5C 332.649,209.448 332.483,208.448 332,207.5C 328.662,210.318 324.829,211.151 320.5,210C 319.874,209.25 319.374,208.416 319,207.5C 318.5,197.506 318.334,187.506 318.5,177.5 Z"/></g>
<g><path style="opacity:1" fill="#0a0a0a" d="M 354.5,176.5 C 360.624,175.7 365.458,177.7 369,182.5C 369.5,191.827 369.666,201.161 369.5,210.5C 366.833,210.5 364.167,210.5 361.5,210.5C 361.762,209.022 361.429,207.689 360.5,206.5C 356.723,211.396 352.556,211.729 348,207.5C 345.268,201.441 346.768,196.608 352.5,193C 354.909,191.293 357.575,190.46 360.5,190.5C 360.662,188.473 360.495,186.473 360,184.5C 358.989,183.663 357.822,183.33 356.5,183.5C 356.5,185.167 356.5,186.833 356.5,188.5C 353.5,188.5 350.5,188.5 347.5,188.5C 347.34,183.004 349.673,179.004 354.5,176.5 Z"/></g>
<g><path style="opacity:1" fill="#0d0d0d" d="M 401.5,176.5 C 414.652,175.446 419.985,181.446 417.5,194.5C 413.167,194.5 408.833,194.5 404.5,194.5C 404.216,197.777 404.549,200.943 405.5,204C 406.449,204.617 407.282,204.451 408,203.5C 408.495,201.527 408.662,199.527 408.5,197.5C 411.5,197.5 414.5,197.5 417.5,197.5C 417.445,208.887 411.778,213.054 400.5,210C 397.619,208.749 395.786,206.583 395,203.5C 394.333,197.167 394.333,190.833 395,184.5C 396.305,181.039 398.471,178.372 401.5,176.5 Z"/></g>
<g><path style="opacity:1" fill="#f0f0f0" d="M 299.5,182.5 C 300.833,182.5 302.167,182.5 303.5,182.5C 303.5,189.833 303.5,197.167 303.5,204.5C 301.833,204.5 300.167,204.5 298.5,204.5C 298.203,197.08 298.536,189.746 299.5,182.5 Z"/></g>
<g><path style="opacity:1" fill="#efefef" d="M 120.5,182.5 C 121.822,182.33 122.989,182.663 124,183.5C 124.667,190.167 124.667,196.833 124,203.5C 122.667,204.833 121.333,204.833 120,203.5C 119.205,196.42 119.372,189.42 120.5,182.5 Z"/></g>
<g><path style="opacity:1" fill="#f6f6f6" d="M 408.5,185.5 C 408.5,186.833 408.5,188.167 408.5,189.5C 407.167,189.5 405.833,189.5 404.5,189.5C 404.5,187.833 404.5,186.167 404.5,184.5C 404.917,183.876 405.584,183.543 406.5,183.5C 407.713,183.747 408.38,184.414 408.5,185.5 Z"/></g>
<g><path style="opacity:1" fill="#101010" d="M 184.5,187.5 C 189.5,187.5 194.5,187.5 199.5,187.5C 199.5,189.5 199.5,191.5 199.5,193.5C 194.5,193.5 189.5,193.5 184.5,193.5C 184.5,191.5 184.5,189.5 184.5,187.5 Z"/></g>
<g><path style="opacity:1" fill="#6a6a6a" d="M 404.5,184.5 C 404.5,186.167 404.5,187.833 404.5,189.5C 405.833,189.5 407.167,189.5 408.5,189.5C 408.5,188.167 408.5,186.833 408.5,185.5C 409.451,186.919 409.784,188.585 409.5,190.5C 407.5,190.5 405.5,190.5 403.5,190.5C 403.205,188.265 403.539,186.265 404.5,184.5 Z"/></g>
<g><path style="opacity:1" fill="#f0f0f0" d="M 273.5,194.5 C 274.638,197.304 274.805,200.304 274,203.5C 271.2,205.118 269.7,204.285 269.5,201C 269.722,198.038 271.056,195.871 273.5,194.5 Z"/></g>
<g><path style="opacity:1" fill="#f0f0f0" d="M 358.5,194.5 C 359.765,195.514 360.431,197.014 360.5,199C 361.412,203.427 359.912,204.927 356,203.5C 354.927,199.9 355.76,196.9 358.5,194.5 Z"/></g>
<g><path style="opacity:1" fill="#696969" d="M 174.5,202.5 C 176.167,202.5 177.833,202.5 179.5,202.5C 179.806,205.385 179.473,208.052 178.5,210.5C 178.5,208.167 178.5,205.833 178.5,203.5C 176.901,203.768 175.568,203.434 174.5,202.5 Z"/></g>
<g><path style="opacity:1" fill="#696969" d="M 386.5,202.5 C 388.167,202.5 389.833,202.5 391.5,202.5C 391.806,205.385 391.473,208.052 390.5,210.5C 390.5,208.167 390.5,205.833 390.5,203.5C 388.901,203.768 387.568,203.434 386.5,202.5 Z"/></g>
<g><path style="opacity:1" fill="#0b0b0b" d="M 159.5,229.5 C 170.601,227.033 176.601,231.367 177.5,242.5C 174.552,242.223 171.719,242.556 169,243.5C 169.225,240.154 167.892,237.82 165,236.5C 163.053,237.044 162.22,238.377 162.5,240.5C 162.622,242.791 163.455,244.791 165,246.5C 170.047,249.88 174.047,254.214 177,259.5C 178.756,275.04 172.256,280.206 157.5,275C 153.766,271.301 152.099,266.801 152.5,261.5C 155.5,261.5 158.5,261.5 161.5,261.5C 160.893,265.07 162.06,267.737 165,269.5C 165.772,269.355 166.439,269.022 167,268.5C 167.667,266.167 167.667,263.833 167,261.5C 163,257.5 159,253.5 155,249.5C 150.543,241.332 152.043,234.665 159.5,229.5 Z"/></g>
<g><path style="opacity:1" fill="#7e7e7e" d="M 253.5,231.5 C 256.625,230.521 259.958,230.187 263.5,230.5C 263.802,233.059 263.468,235.393 262.5,237.5C 262.5,235.5 262.5,233.5 262.5,231.5C 259.5,231.5 256.5,231.5 253.5,231.5 Z"/></g>
<g><path style="opacity:1" fill="#010101" d="M 253.5,231.5 C 256.5,231.5 259.5,231.5 262.5,231.5C 262.5,233.5 262.5,235.5 262.5,237.5C 259.5,237.5 256.5,237.5 253.5,237.5C 253.5,235.5 253.5,233.5 253.5,231.5 Z"/></g>
<g><path style="opacity:1" fill="#060606" d="M 210.5,276.5 C 210.5,265.5 210.5,254.5 210.5,243.5C 213.788,243.073 216.788,243.74 219.5,245.5C 220.107,245.376 220.44,245.043 220.5,244.5C 225.351,241.336 229.517,242.003 233,246.5C 236.79,242.146 241.123,241.479 246,244.5C 247.453,255.063 247.953,265.73 247.5,276.5C 244.5,276.5 241.5,276.5 238.5,276.5C 238.666,267.494 238.5,258.494 238,249.5C 236.887,248.289 235.72,248.289 234.5,249.5C 233.502,258.475 233.168,267.475 233.5,276.5C 230.5,276.5 227.5,276.5 224.5,276.5C 224.5,267.5 224.5,258.5 224.5,249.5C 222.833,249.5 221.167,249.5 219.5,249.5C 219.5,258.5 219.5,267.5 219.5,276.5C 216.5,276.5 213.5,276.5 210.5,276.5 Z"/></g>
<g><path style="opacity:1" fill="#939393" d="M 268.5,243.5 C 271.625,242.521 274.958,242.187 278.5,242.5C 278.263,243.791 278.596,244.791 279.5,245.5C 279.44,246.043 279.107,246.376 278.5,246.5C 277.614,245.675 277.281,244.675 277.5,243.5C 274.5,243.5 271.5,243.5 268.5,243.5 Z"/></g>
<g><path style="opacity:1" fill="#090909" d="M 188.5,242.5 C 201.91,241.245 207.243,247.245 204.5,260.5C 200.167,260.5 195.833,260.5 191.5,260.5C 191.335,263.518 191.502,266.518 192,269.5C 193.011,270.337 194.178,270.67 195.5,270.5C 195.5,268.167 195.5,265.833 195.5,263.5C 198.5,263.5 201.5,263.5 204.5,263.5C 204.492,274.869 198.825,279.035 187.5,276C 185.274,274.773 183.774,272.939 183,270.5C 182.333,263.167 182.333,255.833 183,248.5C 184.36,245.977 186.193,243.977 188.5,242.5 Z"/></g>
<g><path style="opacity:1" fill="#7a7a7a" d="M 220.5,244.5 C 220.44,245.043 220.107,245.376 219.5,245.5C 216.788,243.74 213.788,243.073 210.5,243.5C 210.5,254.5 210.5,265.5 210.5,276.5C 209.505,265.346 209.172,254.012 209.5,242.5C 213.502,242.036 217.169,242.702 220.5,244.5 Z"/></g>
<g><path style="opacity:1" fill="#000000" d="M 253.5,243.5 C 256.5,243.5 259.5,243.5 262.5,243.5C 262.5,254.5 262.5,265.5 262.5,276.5C 259.5,276.5 256.5,276.5 253.5,276.5C 253.5,265.5 253.5,254.5 253.5,243.5 Z"/></g>
<g><path style="opacity:1" fill="#121212" d="M 268.5,243.5 C 271.5,243.5 274.5,243.5 277.5,243.5C 277.281,244.675 277.614,245.675 278.5,246.5C 279.107,246.376 279.44,246.043 279.5,245.5C 284.006,241.171 288.173,241.505 292,246.5C 292.5,256.494 292.666,266.494 292.5,276.5C 289.167,276.5 285.833,276.5 282.5,276.5C 282.5,267.5 282.5,258.5 282.5,249.5C 281.167,249.5 279.833,249.5 278.5,249.5C 278.5,258.5 278.5,267.5 278.5,276.5C 275.167,276.5 271.833,276.5 268.5,276.5C 268.5,265.5 268.5,254.5 268.5,243.5 Z"/></g>
<g><path style="opacity:1" fill="#0b0b0b" d="M 304.5,242.5 C 310.328,241.497 315.161,243.164 319,247.5C 319.18,257.077 319.68,266.577 320.5,276C 317.518,276.498 314.518,276.665 311.5,276.5C 311.657,275.127 311.49,273.793 311,272.5C 310.535,273.931 309.701,275.097 308.5,276C 299.237,277.698 295.737,273.865 298,264.5C 300.922,259.952 305.089,257.285 310.5,256.5C 310.5,254.167 310.5,251.833 310.5,249.5C 307.09,249.384 305.756,251.05 306.5,254.5C 303.5,254.5 300.5,254.5 297.5,254.5C 297.796,249.233 300.129,245.233 304.5,242.5 Z"/></g>
<g><path style="opacity:1" fill="#040404" d="M 339.5,242.5 C 340.833,242.5 342.167,242.5 343.5,242.5C 343.5,245.5 343.5,248.5 343.5,251.5C 340.138,251.07 337.305,252.07 335,254.5C 334.5,261.826 334.334,269.159 334.5,276.5C 331.5,276.5 328.5,276.5 325.5,276.5C 325.5,265.5 325.5,254.5 325.5,243.5C 328.5,243.5 331.5,243.5 334.5,243.5C 334.34,245.199 334.506,246.866 335,248.5C 336.332,246.34 337.832,244.34 339.5,242.5 Z"/></g>
<g><path style="opacity:1" fill="#f8f8f8" d="M 195.5,250.5 C 195.5,252.167 195.5,253.833 195.5,255.5C 194.167,255.5 192.833,255.5 191.5,255.5C 191.5,253.5 191.5,251.5 191.5,249.5C 193.099,249.232 194.432,249.566 195.5,250.5 Z"/></g>
<g><path style="opacity:1" fill="#7b7b7b" d="M 195.5,250.5 C 196.461,252.265 196.795,254.265 196.5,256.5C 194.585,256.784 192.919,256.451 191.5,255.5C 192.833,255.5 194.167,255.5 195.5,255.5C 195.5,253.833 195.5,252.167 195.5,250.5 Z"/></g>
<g><path style="opacity:1" fill="#f0f0f0" d="M 309.5,260.5 C 310.638,263.304 310.805,266.304 310,269.5C 307.2,271.118 305.7,270.285 305.5,267C 305.722,264.038 307.056,261.871 309.5,260.5 Z"/></g>
<g><path style="opacity:1" fill="#090909" d="M 325.5,295.5 C 336.707,292.913 342.373,297.246 342.5,308.5C 340.08,308.292 337.747,308.626 335.5,309.5C 334.667,307.5 333.833,305.5 333,303.5C 329.869,301.834 328.369,302.834 328.5,306.5C 328.577,308.299 329.077,309.966 330,311.5C 335.379,315.212 339.713,319.879 343,325.5C 345.431,336.005 341.431,342.005 331,343.5C 321.846,342.17 317.68,336.836 318.5,327.5C 321.5,327.5 324.5,327.5 327.5,327.5C 327.338,329.527 327.505,331.527 328,333.5C 329.396,335.527 331.062,335.86 333,334.5C 333.667,332.167 333.667,329.833 333,327.5C 328.64,323.14 324.306,318.806 320,314.5C 316.628,306.479 318.461,300.145 325.5,295.5 Z"/></g>
<g><path style="opacity:1" fill="#050505" d="M 25.5,296.5 C 28.8333,296.5 32.1667,296.5 35.5,296.5C 35.19,299.713 35.5233,302.713 36.5,305.5C 36.5,317.833 36.5,330.167 36.5,342.5C 34.1667,342.5 31.8333,342.5 29.5,342.5C 29.5,338.167 29.5,333.833 29.5,329.5C 29.6662,323.491 29.4995,317.491 29,311.5C 27.7308,312.905 27.2308,314.571 27.5,316.5C 25.7342,325.095 24.4008,333.762 23.5,342.5C 21.1667,342.5 18.8333,342.5 16.5,342.5C 11.3049,302.866 9.30493,302.866 10.5,342.5C 8.16667,342.5 5.83333,342.5 3.5,342.5C 3.5,326.833 3.5,311.167 3.5,295.5C 7.43669,295.207 11.27,295.54 15,296.5C 16.4823,304.88 18.1489,313.213 20,321.5C 21.7938,313.018 23.6271,304.684 25.5,296.5 Z"/></g>
<g><path style="opacity:1" fill="#030303" d="M 284.5,299.5 C 287.5,299.5 290.5,299.5 293.5,299.5C 293.5,302.833 293.5,306.167 293.5,309.5C 295.167,309.5 296.833,309.5 298.5,309.5C 298.5,311.5 298.5,313.5 298.5,315.5C 296.833,315.5 295.167,315.5 293.5,315.5C 293.334,321.509 293.501,327.509 294,333.5C 295.444,335.155 297.278,335.822 299.5,335.5C 299.5,337.833 299.5,340.167 299.5,342.5C 295.818,342.665 292.152,342.499 288.5,342C 287,341.167 285.833,340 285,338.5C 284.5,330.841 284.334,323.174 284.5,315.5C 283.5,315.5 282.5,315.5 281.5,315.5C 281.5,313.5 281.5,311.5 281.5,309.5C 282.5,309.5 283.5,309.5 284.5,309.5C 284.5,306.167 284.5,302.833 284.5,299.5 Z"/></g>
<g><path style="opacity:1" fill="#898989" d="M 284.5,299.5 C 287.625,298.521 290.958,298.187 294.5,298.5C 294.5,301.833 294.5,305.167 294.5,308.5C 296.099,308.232 297.432,308.566 298.5,309.5C 296.833,309.5 295.167,309.5 293.5,309.5C 293.5,306.167 293.5,302.833 293.5,299.5C 290.5,299.5 287.5,299.5 284.5,299.5 Z"/></g>
<g><path style="opacity:1" fill="#777777" d="M 409.5,299.5 C 406.5,299.5 403.5,299.5 400.5,299.5C 400.5,302.833 400.5,306.167 400.5,309.5C 399.167,309.5 397.833,309.5 396.5,309.5C 397.209,308.596 398.209,308.263 399.5,308.5C 399.5,305.167 399.5,301.833 399.5,298.5C 403.042,298.187 406.375,298.521 409.5,299.5 Z"/></g>
<g><path style="opacity:1" fill="#0b0b0b" d="M 409.5,299.5 C 409.5,302.5 409.5,305.5 409.5,308.5C 410.568,309.434 411.901,309.768 413.5,309.5C 413.5,311.167 413.5,312.833 413.5,314.5C 411.901,314.232 410.568,314.566 409.5,315.5C 409.177,322.022 409.51,328.355 410.5,334.5C 411.568,335.434 412.901,335.768 414.5,335.5C 414.5,337.833 414.5,340.167 414.5,342.5C 410.818,342.665 407.152,342.499 403.5,342C 402.667,341.167 401.833,340.333 401,339.5C 399.565,331.611 399.065,323.611 399.5,315.5C 398.5,315.5 397.5,315.5 396.5,315.5C 396.5,313.5 396.5,311.5 396.5,309.5C 397.833,309.5 399.167,309.5 400.5,309.5C 400.5,306.167 400.5,302.833 400.5,299.5C 403.5,299.5 406.5,299.5 409.5,299.5 Z"/></g>
<g><path style="opacity:1" fill="#505050" d="M 25.5,296.5 C 28.9619,295.518 32.6286,295.185 36.5,295.5C 36.5,298.833 36.5,302.167 36.5,305.5C 35.5233,302.713 35.19,299.713 35.5,296.5C 32.1667,296.5 28.8333,296.5 25.5,296.5 Z"/></g>
<g><path style="opacity:1" fill="#939393" d="M 70.5,309.5 C 73.6248,308.521 76.9581,308.187 80.5,308.5C 80.2627,309.791 80.596,310.791 81.5,311.5C 81.44,312.043 81.1067,312.376 80.5,312.5C 79.6143,311.675 79.281,310.675 79.5,309.5C 76.5,309.5 73.5,309.5 70.5,309.5 Z"/></g>
<g><path style="opacity:1" fill="#0a0a0a" d="M 150.5,307.5 C 152.121,307.787 153.121,308.787 153.5,310.5C 151.903,311.791 150.57,313.291 149.5,315C 151.557,320.989 150.224,325.989 145.5,330C 141.204,330.964 136.87,331.797 132.5,332.5C 132.709,333.086 133.043,333.586 133.5,334C 139.392,334.444 145.058,335.778 150.5,338C 152.978,341.685 153.144,345.518 151,349.5C 149.681,351.487 147.848,352.654 145.5,353C 140.5,353.667 135.5,353.667 130.5,353C 126.708,350.947 125.542,347.781 127,343.5C 127.903,342.299 129.069,341.465 130.5,341C 125.572,337.364 125.238,333.364 129.5,329C 123.992,312.345 129.658,306.178 146.5,310.5C 147.901,309.479 149.235,308.479 150.5,307.5 Z"/></g>
<g><path style="opacity:1" fill="#080808" d="M 197.5,308.5 C 201.594,307.705 204.761,309.038 207,312.5C 211.792,307.244 216.458,307.244 221,312.5C 221.5,322.494 221.666,332.494 221.5,342.5C 218.5,342.5 215.5,342.5 212.5,342.5C 212.5,333.5 212.5,324.5 212.5,315.5C 210.833,315.5 209.167,315.5 207.5,315.5C 207.5,324.5 207.5,333.5 207.5,342.5C 204.5,342.5 201.5,342.5 198.5,342.5C 198.5,333.5 198.5,324.5 198.5,315.5C 196.5,315.5 194.5,315.5 192.5,315.5C 192.5,324.5 192.5,333.5 192.5,342.5C 189.5,342.5 186.5,342.5 183.5,342.5C 183.5,331.5 183.5,320.5 183.5,309.5C 187.111,309.044 190.444,309.711 193.5,311.5C 194.901,310.479 196.235,309.479 197.5,308.5 Z"/></g>
<g><path style="opacity:1" fill="#9e9e9e" d="M 354.5,309.5 C 351.302,308.964 348.635,309.631 346.5,311.5C 345.596,310.791 345.263,309.791 345.5,308.5C 348.713,308.19 351.713,308.523 354.5,309.5 Z"/></g>
<g><path style="opacity:1" fill="#090909" d="M 459.5,308.5 C 463.306,308.02 466.639,309.02 469.5,311.5C 474.181,307.724 478.681,307.724 483,311.5C 484.451,321.729 484.951,332.062 484.5,342.5C 481.5,342.5 478.5,342.5 475.5,342.5C 475.5,333.5 475.5,324.5 475.5,315.5C 473.5,315.5 471.5,315.5 469.5,315.5C 469.5,324.5 469.5,333.5 469.5,342.5C 466.5,342.5 463.5,342.5 460.5,342.5C 460.666,333.494 460.5,324.494 460,315.5C 458.887,314.289 457.72,314.289 456.5,315.5C 455.502,324.475 455.168,333.475 455.5,342.5C 452.5,342.5 449.5,342.5 446.5,342.5C 446.5,331.5 446.5,320.5 446.5,309.5C 450.03,308.989 453.196,309.656 456,311.5C 457.518,310.837 458.685,309.837 459.5,308.5 Z"/></g>
<g><path style="opacity:1" fill="#0d0d0d" d="M 49.5,308.5 C 56.4284,307.296 61.595,309.629 65,315.5C 65.4998,324.494 65.6664,333.494 65.5,342.5C 62.8333,342.5 60.1667,342.5 57.5,342.5C 57.762,341.022 57.4287,339.689 56.5,338.5C 53.7613,342.52 50.0946,343.52 45.5,341.5C 41.7729,336.929 41.6063,332.262 45,327.5C 48.3783,324.977 52.0449,322.977 56,321.5C 56.6667,319.833 56.6667,318.167 56,316.5C 52.3307,314.991 50.8307,316.324 51.5,320.5C 48.8333,320.5 46.1667,320.5 43.5,320.5C 42.8709,315.091 44.8709,311.091 49.5,308.5 Z"/></g>
<g><path style="opacity:1" fill="#121212" d="M 70.5,309.5 C 73.5,309.5 76.5,309.5 79.5,309.5C 79.281,310.675 79.6143,311.675 80.5,312.5C 81.1067,312.376 81.44,312.043 81.5,311.5C 86.006,307.171 90.1726,307.505 94,312.5C 94.4998,322.494 94.6665,332.494 94.5,342.5C 91.1667,342.5 87.8333,342.5 84.5,342.5C 84.5,333.5 84.5,324.5 84.5,315.5C 83.1667,315.5 81.8333,315.5 80.5,315.5C 80.5,324.5 80.5,333.5 80.5,342.5C 77.1667,342.5 73.8333,342.5 70.5,342.5C 70.5,331.5 70.5,320.5 70.5,309.5 Z"/></g>
<g><path style="opacity:1" fill="#0b0b0b" d="M 106.5,308.5 C 112.328,307.497 117.161,309.164 121,313.5C 121.18,323.077 121.68,332.577 122.5,342C 119.518,342.498 116.518,342.665 113.5,342.5C 113.657,341.127 113.49,339.793 113,338.5C 112.535,339.931 111.701,341.097 110.5,342C 101.237,343.698 97.7372,339.865 100,330.5C 102.922,325.952 107.089,323.285 112.5,322.5C 112.5,320.167 112.5,317.833 112.5,315.5C 109.09,315.384 107.756,317.05 108.5,320.5C 105.5,320.5 102.5,320.5 99.5,320.5C 99.7956,315.233 102.129,311.233 106.5,308.5 Z"/></g>
<g><path style="opacity:1" fill="#0d0d0d" d="M 162.5,308.5 C 175.652,307.446 180.985,313.446 178.5,326.5C 174.167,326.5 169.833,326.5 165.5,326.5C 165.216,329.777 165.549,332.943 166.5,336C 167.449,336.617 168.282,336.451 169,335.5C 169.495,333.527 169.662,331.527 169.5,329.5C 172.5,329.5 175.5,329.5 178.5,329.5C 178.445,340.887 172.778,345.054 161.5,342C 158.619,340.749 156.786,338.583 156,335.5C 155.333,329.167 155.333,322.833 156,316.5C 157.305,313.039 159.471,310.372 162.5,308.5 Z"/></g>
<g><path style="opacity:1" fill="#090909" d="M 233.5,308.5 C 246.176,307.847 251.509,313.847 249.5,326.5C 244.833,326.5 240.167,326.5 235.5,326.5C 235.336,329.187 235.503,331.854 236,334.5C 236.953,336.592 238.286,336.925 240,335.5C 240.495,333.527 240.662,331.527 240.5,329.5C 243.5,329.5 246.5,329.5 249.5,329.5C 249.374,340.914 243.707,345.081 232.5,342C 229.337,340.52 227.504,338.02 227,334.5C 226.333,328.167 226.333,321.833 227,315.5C 228.694,312.642 230.861,310.309 233.5,308.5 Z"/></g>
<g><path style="opacity:1" fill="#020202" d="M 268.5,308.5 C 271.97,307.875 274.804,308.875 277,311.5C 277.5,321.828 277.666,332.161 277.5,342.5C 274.5,342.5 271.5,342.5 268.5,342.5C 268.5,333.5 268.5,324.5 268.5,315.5C 266.856,315.286 265.356,315.62 264,316.5C 263.5,325.16 263.334,333.827 263.5,342.5C 260.5,342.5 257.5,342.5 254.5,342.5C 254.5,331.5 254.5,320.5 254.5,309.5C 257.5,309.5 260.5,309.5 263.5,309.5C 263.351,310.552 263.517,311.552 264,312.5C 265.397,310.93 266.897,309.596 268.5,308.5 Z"/></g>
<g><path style="opacity:1" fill="#080808" d="M 354.5,309.5 C 357.797,330.488 360.131,330.488 361.5,309.5C 364.572,309.183 367.572,309.516 370.5,310.5C 367.605,322.475 364.771,334.475 362,346.5C 359.073,350.875 354.907,352.875 349.5,352.5C 349.5,350.167 349.5,347.833 349.5,345.5C 352.93,346.245 354.597,344.911 354.5,341.5C 352.139,331.389 349.473,321.389 346.5,311.5C 348.635,309.631 351.302,308.964 354.5,309.5 Z"/></g>
<g><path style="opacity:1" fill="#0c0c0c" d="M 379.5,308.5 C 386.586,307.408 391.586,310.074 394.5,316.5C 391.187,320.512 388.187,320.346 385.5,316C 384.552,315.517 383.552,315.351 382.5,315.5C 382.343,316.873 382.51,318.207 383,319.5C 387.333,322.5 391,326.167 394,330.5C 395.569,335.625 394.069,339.459 389.5,342C 381.731,344.47 376.065,342.137 372.5,335C 374.274,334.03 376.107,333.196 378,332.5C 379.714,333.076 380.881,334.243 381.5,336C 383.134,336.494 384.801,336.66 386.5,336.5C 386.649,335.448 386.483,334.448 386,333.5C 382.855,330.266 379.522,327.266 376,324.5C 371.927,317.914 373.094,312.581 379.5,308.5 Z"/></g>
<g><path style="opacity:1" fill="#636363" d="M 409.5,308.5 C 411.167,308.5 412.833,308.5 414.5,308.5C 414.5,310.833 414.5,313.167 414.5,315.5C 412.833,315.5 411.167,315.5 409.5,315.5C 410.568,314.566 411.901,314.232 413.5,314.5C 413.5,312.833 413.5,311.167 413.5,309.5C 411.901,309.768 410.568,309.434 409.5,308.5 Z"/></g>
<g><path style="opacity:1" fill="#0d0d0d" d="M 425.5,308.5 C 438.652,307.446 443.985,313.446 441.5,326.5C 437.167,326.5 432.833,326.5 428.5,326.5C 428.216,329.777 428.549,332.943 429.5,336C 430.449,336.617 431.282,336.451 432,335.5C 432.495,333.527 432.662,331.527 432.5,329.5C 435.5,329.5 438.5,329.5 441.5,329.5C 441.445,340.887 435.778,345.054 424.5,342C 421.619,340.749 419.786,338.583 419,335.5C 418.333,329.167 418.333,322.833 419,316.5C 420.305,313.039 422.471,310.372 425.5,308.5 Z"/></g>
<g><path style="opacity:1" fill="#ededed" d="M 136.5,314.5 C 138.144,314.286 139.644,314.62 141,315.5C 141.667,318.5 141.667,321.5 141,324.5C 140.047,326.592 138.714,326.925 137,325.5C 136.501,321.848 136.335,318.182 136.5,314.5 Z"/></g>
<g><path style="opacity:1" fill="#f6f6f6" d="M 169.5,317.5 C 169.5,318.833 169.5,320.167 169.5,321.5C 168.167,321.5 166.833,321.5 165.5,321.5C 165.5,319.833 165.5,318.167 165.5,316.5C 165.917,315.876 166.584,315.543 167.5,315.5C 168.713,315.747 169.38,316.414 169.5,317.5 Z"/></g>
<g><path style="opacity:1" fill="#fbfbfb" d="M 240.5,321.5 C 239.167,321.5 237.833,321.5 236.5,321.5C 236.5,319.833 236.5,318.167 236.5,316.5C 237.542,315.209 238.708,315.209 240,316.5C 240.494,318.134 240.66,319.801 240.5,321.5 Z"/></g>
<g><path style="opacity:1" fill="#f6f6f6" d="M 432.5,317.5 C 432.5,318.833 432.5,320.167 432.5,321.5C 431.167,321.5 429.833,321.5 428.5,321.5C 428.5,319.833 428.5,318.167 428.5,316.5C 428.917,315.876 429.584,315.543 430.5,315.5C 431.713,315.747 432.38,316.414 432.5,317.5 Z"/></g>
<g><path style="opacity:1" fill="#6a6a6a" d="M 165.5,316.5 C 165.5,318.167 165.5,319.833 165.5,321.5C 166.833,321.5 168.167,321.5 169.5,321.5C 169.5,320.167 169.5,318.833 169.5,317.5C 170.451,318.919 170.784,320.585 170.5,322.5C 168.5,322.5 166.5,322.5 164.5,322.5C 164.205,320.265 164.539,318.265 165.5,316.5 Z"/></g>
<g><path style="opacity:1" fill="#8b8b8b" d="M 236.5,316.5 C 236.5,318.167 236.5,319.833 236.5,321.5C 237.833,321.5 239.167,321.5 240.5,321.5C 239.081,322.451 237.415,322.784 235.5,322.5C 235.205,320.265 235.539,318.265 236.5,316.5 Z"/></g>
<g><path style="opacity:1" fill="#6a6a6a" d="M 428.5,316.5 C 428.5,318.167 428.5,319.833 428.5,321.5C 429.833,321.5 431.167,321.5 432.5,321.5C 432.5,320.167 432.5,318.833 432.5,317.5C 433.451,318.919 433.784,320.585 433.5,322.5C 431.5,322.5 429.5,322.5 427.5,322.5C 427.205,320.265 427.539,318.265 428.5,316.5 Z"/></g>
<g><path style="opacity:1" fill="#dcdcdc" d="M 54.5,326.5 C 55.7647,327.514 56.4313,329.014 56.5,331C 57.2439,335.934 55.4106,337.434 51,335.5C 50.8333,334.667 50.6667,333.833 50.5,333C 51.2054,330.458 52.5387,328.292 54.5,326.5 Z"/></g>
<g><path style="opacity:1" fill="#f0f0f0" d="M 111.5,326.5 C 112.638,329.304 112.805,332.304 112,335.5C 109.2,337.118 107.7,336.285 107.5,333C 107.722,330.038 109.056,327.871 111.5,326.5 Z"/></g>
<g><path style="opacity:1" fill="#7e7e7e" d="M 29.5,329.5 C 28.8333,325.167 28.1667,320.833 27.5,316.5C 27.2308,314.571 27.7308,312.905 29,311.5C 29.4995,317.491 29.6662,323.491 29.5,329.5 Z"/></g>
<g><path style="opacity:1" fill="#979797" d="M 410.5,334.5 C 412.167,334.5 413.833,334.5 415.5,334.5C 415.806,337.385 415.473,340.052 414.5,342.5C 414.5,340.167 414.5,337.833 414.5,335.5C 412.901,335.768 411.568,335.434 410.5,334.5 Z"/></g>
<g><path style="opacity:1" fill="#e2e2e2" d="M 134.5,341.5 C 137.187,341.336 139.854,341.503 142.5,342C 147.214,343.056 147.547,344.723 143.5,347C 140.5,347.667 137.5,347.667 134.5,347C 131.982,345.19 131.982,343.357 134.5,341.5 Z"/></g>
<g><path style="opacity:1" fill="#161616" d="M 160.5,381.5 C 161.302,380.048 161.802,378.382 162,376.5C 162.495,378.473 162.662,380.473 162.5,382.5C 160.46,385.134 158.293,385.134 156,382.5C 155.186,380.098 155.353,377.765 156.5,375.5C 157.474,377.743 157.808,380.076 157.5,382.5C 158.791,382.737 159.791,382.404 160.5,381.5 Z"/></g>
<g><path style="opacity:1" fill="#8a8a8a" d="M 162.5,382.5 C 162.662,380.473 162.495,378.473 162,376.5C 161.802,378.382 161.302,380.048 160.5,381.5C 160.5,379.5 160.5,377.5 160.5,375.5C 161.5,375.5 162.5,375.5 163.5,375.5C 163.802,378.059 163.468,380.393 162.5,382.5 Z"/></g>
<g><path style="opacity:1" fill="#1b1b1b" d="M 171.5,375.5 C 172.638,378.304 172.805,381.304 172,384.5C 170.667,383.167 169.333,381.833 168,380.5C 167.781,381.938 167.281,383.271 166.5,384.5C 165.167,381.833 165.167,379.167 166.5,376.5C 168.167,377.5 169.5,378.833 170.5,380.5C 171.452,378.955 171.785,377.288 171.5,375.5 Z"/></g>
<g><path style="opacity:1" fill="#5b5b5b" d="M 174.5,375.5 C 175.5,375.5 176.5,375.5 177.5,375.5C 177.5,378.5 177.5,381.5 177.5,384.5C 176.5,384.5 175.5,384.5 174.5,384.5C 174.5,381.5 174.5,378.5 174.5,375.5 Z"/></g>
<g><path style="opacity:1" fill="#181818" d="M 188.5,375.5 C 193.443,375.288 194.11,376.288 190.5,378.5C 191.025,379.192 191.692,379.692 192.5,380C 191.027,380.71 190.36,381.876 190.5,383.5C 191.552,383.351 192.552,383.517 193.5,384C 191.866,384.494 190.199,384.66 188.5,384.5C 188.5,381.5 188.5,378.5 188.5,375.5 Z"/></g>
<g><path style="opacity:1" fill="#212121" d="M 211.5,375.5 C 212.765,376.514 213.431,378.014 213.5,380C 213.167,381.5 212.833,383 212.5,384.5C 211.516,381.572 211.183,378.572 211.5,375.5 Z"/></g>
<g><path style="opacity:1" fill="#202020" d="M 214.5,375.5 C 216.924,375.192 219.257,375.526 221.5,376.5C 220.078,378.965 219.078,381.631 218.5,384.5C 217.526,382.257 217.192,379.924 217.5,377.5C 215.821,377.715 214.821,377.048 214.5,375.5 Z"/></g>
<g><path style="opacity:1" fill="#111111" d="M 223.5,375.5 C 224.765,376.514 225.431,378.014 225.5,380C 225.167,381.5 224.833,383 224.5,384.5C 223.516,381.572 223.183,378.572 223.5,375.5 Z"/></g>
<g><path style="opacity:1" fill="#202020" d="M 239.5,375.5 C 241.344,377.279 242.01,379.612 241.5,382.5C 242.5,382.5 243.5,382.5 244.5,382.5C 244.192,380.076 244.526,377.743 245.5,375.5C 246.833,378.167 246.833,380.833 245.5,383.5C 243.629,384.767 241.796,384.767 240,383.5C 239.503,380.854 239.336,378.187 239.5,375.5 Z"/></g>
<g><path style="opacity:1" fill="#212121" d="M 248.5,375.5 C 250.924,375.192 253.257,375.526 255.5,376.5C 254.675,377.386 253.675,377.719 252.5,377.5C 252.808,379.924 252.474,382.257 251.5,384.5C 250.745,381.348 249.745,378.348 248.5,375.5 Z"/></g>
<g><path style="opacity:1" fill="#1d1d1d" d="M 298.5,375.5 C 300.344,377.279 301.01,379.612 300.5,382.5C 301.675,382.281 302.675,382.614 303.5,383.5C 301.955,384.452 300.288,384.785 298.5,384.5C 298.5,381.5 298.5,378.5 298.5,375.5 Z"/></g>
<g><path style="opacity:1" fill="#5b5b5b" d="M 329.5,375.5 C 330.5,375.5 331.5,375.5 332.5,375.5C 332.5,378.5 332.5,381.5 332.5,384.5C 331.5,384.5 330.5,384.5 329.5,384.5C 329.5,381.5 329.5,378.5 329.5,375.5 Z"/></g>
<g><path style="opacity:1" fill="#2a2a2a" d="M 231.5,375.5 C 236.315,374.855 237.981,376.688 236.5,381C 235.552,381.483 234.552,381.649 233.5,381.5C 233.719,382.675 233.386,383.675 232.5,384.5C 231.516,381.572 231.183,378.572 231.5,375.5 Z"/></g>
<g><path style="opacity:1" fill="#f8f8f8" d="M 233.5,377.5 C 235.337,377.639 235.67,378.306 234.5,379.5C 233.702,379.043 233.369,378.376 233.5,377.5 Z"/></g>
<g><path style="opacity:1" fill="#212121" d="M 178.5,375.5 C 179.496,375.414 180.329,375.748 181,376.5C 181.471,378.246 182.138,379.913 183,381.5C 183.543,379.369 184.376,377.369 185.5,375.5C 185.988,378.437 185.321,381.271 183.5,384C 182.668,384.688 182.002,384.521 181.5,383.5C 180.487,380.812 179.487,378.146 178.5,375.5 Z"/></g>
<g><path style="opacity:1" fill="#1b1b1b" d="M 291.5,375.5 C 293.411,375.574 294.578,376.574 295,378.5C 296.205,380.534 296.372,382.534 295.5,384.5C 293.5,381.833 291.5,381.833 289.5,384.5C 289.167,384.167 288.833,383.833 288.5,383.5C 289.9,380.965 290.9,378.298 291.5,375.5 Z"/></g>
<g><path style="opacity:1" fill="#c3c3c3" d="M 292.5,378.5 C 293.776,379.386 293.776,380.386 292.5,381.5C 291.438,380.575 291.438,379.575 292.5,378.5 Z"/></g>
<g><path style="opacity:1" fill="#1b1b1b" d="M 307.5,375.5 C 309.411,375.574 310.578,376.574 311,378.5C 312.205,380.534 312.372,382.534 311.5,384.5C 309.5,381.833 307.5,381.833 305.5,384.5C 305.167,384.167 304.833,383.833 304.5,383.5C 305.9,380.965 306.9,378.298 307.5,375.5 Z"/></g>
<g><path style="opacity:1" fill="#c3c3c3" d="M 308.5,378.5 C 309.776,379.386 309.776,380.386 308.5,381.5C 307.438,380.575 307.438,379.575 308.5,378.5 Z"/></g>
<g><path style="opacity:1" fill="#242424" d="M 313.5,375.5 C 315.384,375.712 316.717,376.712 317.5,378.5C 318.287,377.758 318.953,376.925 319.5,376C 320.332,375.312 320.998,375.479 321.5,376.5C 319.637,378.893 318.304,381.56 317.5,384.5C 316.415,381.335 315.082,378.335 313.5,375.5 Z"/></g>
<g><path style="opacity:1" fill="#282828" d="M 323.5,375.5 C 328.11,375.596 328.444,376.596 324.5,378.5C 328.021,379.15 329.021,380.983 327.5,384C 325.741,384.798 324.074,384.631 322.5,383.5C 327.639,382.803 327.805,381.47 323,379.5C 322.421,378.072 322.588,376.738 323.5,375.5 Z"/></g>
<g><path style="opacity:1" fill="#1b1b1b" d="M 336.5,375.5 C 338.411,375.574 339.578,376.574 340,378.5C 341.205,380.534 341.372,382.534 340.5,384.5C 338.5,381.833 336.5,381.833 334.5,384.5C 334.167,384.167 333.833,383.833 333.5,383.5C 334.9,380.965 335.9,378.298 336.5,375.5 Z"/></g>
<g><path style="opacity:1" fill="#c3c3c3" d="M 337.5,378.5 C 338.776,379.386 338.776,380.386 337.5,381.5C 336.438,380.575 336.438,379.575 337.5,378.5 Z"/></g>
<g><path style="opacity:1" fill="#262626" d="M 195.5,375.5 C 198.044,375.104 200.211,375.771 202,377.5C 202.507,378.996 202.007,380.163 200.5,381C 202.26,381.965 202.594,383.132 201.5,384.5C 200.281,383.737 199.281,382.737 198.5,381.5C 197.833,382.5 197.167,383.5 196.5,384.5C 195.516,381.572 195.183,378.572 195.5,375.5 Z"/></g>
<g><path style="opacity:1" fill="#232323" d="M 256.5,375.5 C 261.667,374.492 263.334,376.325 261.5,381C 263.645,385.502 262.811,385.669 259,381.5C 258.751,382.624 258.251,383.624 257.5,384.5C 256.516,381.572 256.183,378.572 256.5,375.5 Z"/></g>
<g><path style="opacity:1" fill="#f4f4f4" d="M 258.5,377.5 C 260.337,377.639 260.67,378.306 259.5,379.5C 258.702,379.043 258.369,378.376 258.5,377.5 Z"/></g>
<g><path style="opacity:1" fill="#242424" d="M 205.5,375.5 C 210.658,376.484 210.658,377.317 205.5,378C 207.327,378.899 208.66,380.233 209.5,382C 208.015,384.867 206.015,385.201 203.5,383C 204.833,382.667 206.167,382.333 207.5,382C 203.381,380.641 202.715,378.474 205.5,375.5 Z"/></g>
<g><path style="opacity:1" fill="#1e1e1e" d="M 267.5,375.5 C 268.496,375.414 269.329,375.748 270,376.5C 270.735,378.871 271.568,381.205 272.5,383.5C 272.167,383.833 271.833,384.167 271.5,384.5C 269.5,381.833 267.5,381.833 265.5,384.5C 265.167,384 264.833,383.5 264.5,383C 265.606,380.511 266.606,378.011 267.5,375.5 Z"/></g>
<g><path style="opacity:1" fill="#b5b5b5" d="M 267.5,379.5 C 269.337,379.639 269.67,380.306 268.5,381.5C 267.702,381.043 267.369,380.376 267.5,379.5 Z"/></g>
<g><path style="opacity:1" fill="#292929" d="M 277.5,375.5 C 279.433,376.642 280.933,378.308 282,380.5C 283.084,379.335 283.917,378.002 284.5,376.5C 285.325,375.614 286.325,375.281 287.5,375.5C 287.817,378.572 287.484,381.572 286.5,384.5C 285.702,382.922 285.202,381.256 285,379.5C 283.765,384.151 282.098,384.484 280,380.5C 279.781,381.938 279.281,383.271 278.5,384.5C 277.516,381.572 277.183,378.572 277.5,375.5 Z"/></g>
</svg>
