<?xml version="1.0" encoding="UTF-8"?>
<!DOCTYPE svg PUBLIC "-//W3C//DTD SVG 1.1//EN" "http://www.w3.org/Graphics/SVG/1.1/DTD/svg11.dtd">
<svg xmlns="http://www.w3.org/2000/svg" version="1.1" width="408px" height="200px" style="shape-rendering:geometricPrecision; text-rendering:geometricPrecision; image-rendering:optimizeQuality; fill-rule:evenodd; clip-rule:evenodd" xmlns:xlink="http://www.w3.org/1999/xlink">
<g><path style="opacity:1" fill="#f9f6f8" d="M 91.5,11.5 C 92.5,11.5 93.5,11.5 94.5,11.5C 94.5,23.1667 94.5,34.8333 94.5,46.5C 94.5,85.5 94.5,124.5 94.5,163.5C 94.5,170.833 94.5,178.167 94.5,185.5C 92.8347,139.342 91.8347,93.009 91.5,46.5C 91.5,34.8333 91.5,23.1667 91.5,11.5 Z"/></g>
<g><path style="opacity:1" fill="#96a4ab" d="M 94.5,11.5 C 120.167,11.5 145.833,11.5 171.5,11.5C 171.5,43.5 171.5,75.5 171.5,107.5C 169.772,115.718 167.105,123.718 163.5,131.5C 163.672,132.492 163.338,133.158 162.5,133.5C 159.449,137.223 156.782,141.223 154.5,145.5C 143.257,159.741 129.591,171.075 113.5,179.5C 112.51,173.355 112.177,167.022 112.5,160.5C 136.504,152.665 150.67,136.332 155,111.5C 155.821,104.321 155.655,97.3209 154.5,90.5C 159.605,85.8974 164.605,81.064 169.5,76C 164.61,75.0344 159.943,75.5344 155.5,77.5C 155.5,70.1667 155.5,62.8333 155.5,55.5C 155.5,54.8333 155.5,54.1667 155.5,53.5C 155.5,51.1667 155.5,48.8333 155.5,46.5C 154.5,46.5 153.5,46.5 152.5,46.5C 152.167,46.5 151.833,46.5 151.5,46.5C 151.5,45.1667 151.5,43.8333 151.5,42.5C 155.5,41.8333 155.5,41.1667 151.5,40.5C 150.449,44.7783 150.116,51.7783 150.5,61.5C 147.482,61.2962 144.482,60.9629 141.5,60.5C 141.167,60.5 140.833,60.5 140.5,60.5C 137.696,59.3622 134.696,59.1955 131.5,60C 130.058,60.3768 129.058,61.2101 128.5,62.5C 123.694,59.6344 118.694,58.9678 113.5,60.5C 112.167,60.8333 110.833,61.1667 109.5,61.5C 107.833,61.5 106.167,61.5 104.5,61.5C 104.831,53.1401 104.498,44.8068 103.5,36.5C 102.571,37.6888 102.238,39.0222 102.5,40.5C 98.5,41.1667 98.5,41.8333 102.5,42.5C 102.5,43.8333 102.5,45.1667 102.5,46.5C 99.8333,46.5 97.1667,46.5 94.5,46.5C 94.5,34.8333 94.5,23.1667 94.5,11.5 Z"/></g>
<g><path style="opacity:1" fill="#fcfcfc" d="M 114.5,32.5 C 119.012,32.1486 123.345,32.8152 127.5,34.5C 129.913,33.0508 132.58,32.3841 135.5,32.5C 139.507,33.1727 143.507,33.8394 147.5,34.5C 147.5,42.5 147.5,50.5 147.5,58.5C 143.382,58.4355 139.382,57.7688 135.5,56.5C 132.403,56.383 129.736,57.383 127.5,59.5C 124.905,57.7838 122.071,56.7838 119,56.5C 115.306,57.8658 111.472,58.5325 107.5,58.5C 107.5,50.5 107.5,42.5 107.5,34.5C 110.228,34.8294 112.562,34.1628 114.5,32.5 Z"/></g>
<g><path style="opacity:1" fill="#c9284c" d="M 249.5,35.5 C 249.5,57.1667 249.5,78.8333 249.5,100.5C 229.167,100.5 208.833,100.5 188.5,100.5C 188.5,78.5 188.5,56.5 188.5,34.5C 209.007,34.1695 229.34,34.5028 249.5,35.5 Z"/></g>
<g><path style="opacity:1" fill="#ca284c" d="M 322.5,35.5 C 345.833,35.5 369.167,35.5 392.5,35.5C 392.5,57.1667 392.5,78.8333 392.5,100.5C 369.167,100.5 345.833,100.5 322.5,100.5C 322.5,78.8333 322.5,57.1667 322.5,35.5 Z"/></g>
<g><path style="opacity:1" fill="#e0a7b3" d="M 321.5,35.5 C 345.328,34.5024 369.328,34.1691 393.5,34.5C 393.831,57.0062 393.497,79.3396 392.5,101.5C 392.5,101.167 392.5,100.833 392.5,100.5C 392.5,78.8333 392.5,57.1667 392.5,35.5C 369.167,35.5 345.833,35.5 322.5,35.5C 322.167,35.5 321.833,35.5 321.5,35.5 Z"/></g>
<g><path style="opacity:1" fill="#424548" d="M 109.5,61.5 C 107.735,62.4614 105.735,62.7947 103.5,62.5C 103.5,60.1667 103.5,57.8333 103.5,55.5C 99.7566,55.5408 99.5899,54.8741 103,53.5C 103.796,50.9615 103.629,48.6282 102.5,46.5C 102.5,45.1667 102.5,43.8333 102.5,42.5C 98.5,41.8333 98.5,41.1667 102.5,40.5C 102.238,39.0222 102.571,37.6888 103.5,36.5C 104.498,44.8068 104.831,53.1401 104.5,61.5C 106.167,61.5 107.833,61.5 109.5,61.5 Z"/></g>
<g><path style="opacity:1" fill="#fefdfd" d="M 210.5,74.5 C 213.444,82.0625 218.277,83.3958 225,78.5C 226.456,67.2688 226.956,55.9355 226.5,44.5C 231.167,44.5 235.833,44.5 240.5,44.5C 240.5,55.1667 240.5,65.8333 240.5,76.5C 237.448,88.2113 229.782,93.2113 217.5,91.5C 205.717,93.0353 198.717,88.0353 196.5,76.5C 196.5,65.8333 196.5,55.1667 196.5,44.5C 200.833,44.5 205.167,44.5 209.5,44.5C 209.173,54.6806 209.506,64.6806 210.5,74.5 Z"/></g>
<g><path style="opacity:1" fill="#eebdc7" d="M 210.5,74.5 C 209.506,64.6806 209.173,54.6806 209.5,44.5C 205.167,44.5 200.833,44.5 196.5,44.5C 196.5,55.1667 196.5,65.8333 196.5,76.5C 195.505,65.6794 195.172,54.6794 195.5,43.5C 200.5,43.5 205.5,43.5 210.5,43.5C 210.5,53.8333 210.5,64.1667 210.5,74.5 Z"/></g>
<g><path style="opacity:1" fill="#fefdfd" d="M 363.5,46.5 C 369.744,45.5422 376.077,45.2088 382.5,45.5C 382.5,60.8333 382.5,76.1667 382.5,91.5C 378.833,91.5 375.167,91.5 371.5,91.5C 371.667,80.1618 371.5,68.8284 371,57.5C 367.848,68.7742 365.015,80.1075 362.5,91.5C 358.774,91.8226 355.107,91.4892 351.5,90.5C 348.421,80.2655 345.755,69.9321 343.5,59.5C 343.539,58.2438 343.039,57.2438 342,56.5C 341.5,68.1619 341.333,79.8286 341.5,91.5C 337.833,91.5 334.167,91.5 330.5,91.5C 330.5,75.8333 330.5,60.1667 330.5,44.5C 337.09,44.189 343.59,44.5223 350,45.5C 351.594,54.7765 353.928,63.7765 357,72.5C 359.485,63.8946 361.651,55.228 363.5,46.5 Z"/></g>
<g><path style="opacity:1" fill="#fcfafb" d="M 48.5,65.5 C 57.8068,74.4725 67.1401,83.4725 76.5,92.5C 76.5,115.5 76.5,138.5 76.5,161.5C 76.5,167.167 76.5,172.833 76.5,178.5C 74.5467,172.926 73.88,166.926 74.5,160.5C 74.8305,140.326 74.4971,120.326 73.5,100.5C 63.1467,91.1446 52.8133,81.8112 42.5,72.5C 34.0051,63.1719 25.0051,54.3386 15.5,46C 19.5,45.3333 23.5,45.3333 27.5,46C 34.1517,52.9719 41.1517,59.4719 48.5,65.5 Z"/></g>
<g><path style="opacity:1" fill="#fcfafb" d="M 63.5,54.5 C 69.1627,60.9958 75.3294,66.9958 82,72.5C 82.5,102.498 82.6666,132.498 82.5,162.5C 82.5,168.833 82.5,175.167 82.5,181.5C 80.8353,148.346 79.8353,115.013 79.5,81.5C 71.8258,73.8264 63.8258,66.4931 55.5,59.5C 50.7287,55.2309 46.062,50.7309 41.5,46C 45.5,45.3333 49.5,45.3333 53.5,46C 56.4124,49.419 59.7457,52.2524 63.5,54.5 Z"/></g>
<g><path style="opacity:1" fill="#fbf8f8" d="M 80.5,47.5 C 83.1261,49.8235 85.7928,52.1568 88.5,54.5C 88.5,90.8333 88.5,127.167 88.5,163.5C 88.5,170.5 88.5,177.5 88.5,184.5C 87.8826,184.389 87.3826,184.056 87,183.5C 86.8326,143.331 86.3326,103.331 85.5,63.5C 80.8207,58.8223 75.8207,54.489 70.5,50.5C 69.5213,48.8546 68.188,47.5213 66.5,46.5C 71.4217,44.9668 76.0883,45.3001 80.5,47.5 Z"/></g>
<g><path style="opacity:1" fill="#e596a6" d="M 226.5,44.5 C 231.305,43.5128 236.305,43.1795 241.5,43.5C 241.828,54.6794 241.495,65.6794 240.5,76.5C 240.5,65.8333 240.5,55.1667 240.5,44.5C 235.833,44.5 231.167,44.5 226.5,44.5 Z"/></g>
<g><path style="opacity:1" fill="#f8e5e7" d="M 382.5,91.5 C 382.5,76.1667 382.5,60.8333 382.5,45.5C 376.077,45.2088 369.744,45.5422 363.5,46.5C 369.75,44.5411 376.416,43.8745 383.5,44.5C 383.83,60.3422 383.496,76.0089 382.5,91.5 Z"/></g>
<g><path style="opacity:1" fill="#832c41" d="M 151.5,46.5 C 151.833,46.5 152.167,46.5 152.5,46.5C 152.5,48.8333 152.5,51.1667 152.5,53.5C 153.5,53.5 154.5,53.5 155.5,53.5C 155.5,54.1667 155.5,54.8333 155.5,55.5C 155.167,55.5 154.833,55.5 154.5,55.5C 153.791,54.596 152.791,54.2627 151.5,54.5C 151.5,51.8333 151.5,49.1667 151.5,46.5 Z"/></g>
<g><path style="opacity:1" fill="#ce274c" d="M 152.5,46.5 C 153.5,46.5 154.5,46.5 155.5,46.5C 155.5,48.8333 155.5,51.1667 155.5,53.5C 154.5,53.5 153.5,53.5 152.5,53.5C 152.5,51.1667 152.5,48.8333 152.5,46.5 Z"/></g>
<g><path style="opacity:1" fill="#ca2b4d" d="M 70.5,50.5 C 75.8207,54.489 80.8207,58.8223 85.5,63.5C 85.5,96.5 85.5,129.5 85.5,162.5C 84.5,162.5 83.5,162.5 82.5,162.5C 82.6666,132.498 82.5,102.498 82,72.5C 75.3294,66.9958 69.1627,60.9958 63.5,54.5C 65.6351,52.9291 67.9684,51.5957 70.5,50.5 Z"/></g>
<g><path style="opacity:1" fill="#96a4ac" d="M 91.5,11.5 C 91.5,23.1667 91.5,34.8333 91.5,46.5C 87.7657,46.3227 84.0991,46.6561 80.5,47.5C 76.0883,45.3001 71.4217,44.9668 66.5,46.5C 68.188,47.5213 69.5213,48.8546 70.5,50.5C 67.9684,51.5957 65.6351,52.9291 63.5,54.5C 59.7457,52.2524 56.4124,49.419 53.5,46C 49.5,45.3333 45.5,45.3333 41.5,46C 46.062,50.7309 50.7287,55.2309 55.5,59.5C 53.1667,61.5 50.8333,63.5 48.5,65.5C 41.1517,59.4719 34.1517,52.9719 27.5,46C 23.5,45.3333 19.5,45.3333 15.5,46C 25.0051,54.3386 34.0051,63.1719 42.5,72.5C 30.1086,94.7843 30.6086,116.784 44,138.5C 51.38,148.38 60.88,155.38 72.5,159.5C 72.5,160.167 72.8333,160.5 73.5,160.5C 73.8288,166.206 73.4954,171.872 72.5,177.5C 70.1324,176.111 67.7991,174.778 65.5,173.5C 63.5659,172.89 61.8993,171.89 60.5,170.5C 51.559,162.896 42.8923,154.896 34.5,146.5C 31.7915,143.792 29.4581,140.792 27.5,137.5C 21.1721,126.838 16.8387,115.505 14.5,103.5C 14.5,72.8333 14.5,42.1667 14.5,11.5C 40.1667,11.5 65.8333,11.5 91.5,11.5 Z"/></g>
<g><path style="opacity:1" fill="#b5566e" d="M 87.5,18.5 C 79.8333,18.5 72.1667,18.5 64.5,18.5C 64.5,25.5 64.5,32.5 64.5,39.5C 72.1667,39.5 79.8333,39.5 87.5,39.5C 79.6841,40.4924 71.6841,40.8257 63.5,40.5C 63.5,32.8333 63.5,25.1667 63.5,17.5C 71.6841,17.1743 79.6841,17.5076 87.5,18.5 Z"/></g>
<g><path style="opacity:1" fill="#b35b73" d="M 42.5,18.5 C 48.6446,17.5098 54.9779,17.1765 61.5,17.5C 61.5,25.1667 61.5,32.8333 61.5,40.5C 54.8333,40.5 48.1667,40.5 41.5,40.5C 41.175,32.9809 41.5084,25.6476 42.5,18.5 Z"/></g>
<g><path style="opacity:1" fill="#c92047" d="M 87.5,18.5 C 87.5,25.5 87.5,32.5 87.5,39.5C 79.8333,39.5 72.1667,39.5 64.5,39.5C 64.5,32.5 64.5,25.5 64.5,18.5C 72.1667,18.5 79.8333,18.5 87.5,18.5 Z"/></g>
<g><path style="opacity:1" fill="#d0435e" d="M 84.5,36.5 C 82.8632,37.3796 81.0299,38.0463 79,38.5C 76.6667,37.1667 74.3333,37.1667 72,38.5C 69.9701,38.0463 68.1368,37.3796 66.5,36.5C 67.8333,36.5 69.1667,36.5 70.5,36.5C 70.2528,23.382 71.2528,23.382 73.5,36.5C 74.8333,36.5 76.1667,36.5 77.5,36.5C 79.7017,23.4021 80.7017,23.4021 80.5,36.5C 81.8333,36.5 83.1667,36.5 84.5,36.5 Z"/></g>
<g><path style="opacity:1" fill="#b05f76" d="M 39.5,18.5 C 32.8333,18.5 26.1667,18.5 19.5,18.5C 19.5,25.5 19.5,32.5 19.5,39.5C 26.1667,39.5 32.8333,39.5 39.5,39.5C 32.6866,40.4912 25.6866,40.8245 18.5,40.5C 18.5,32.8333 18.5,25.1667 18.5,17.5C 25.6866,17.1755 32.6866,17.5088 39.5,18.5 Z"/></g>
<g><path style="opacity:1" fill="#fbf1f2" d="M 74.5,27.5 C 75.1667,30.1667 75.8333,30.1667 76.5,27.5C 76.6741,25.139 77.0074,22.8056 77.5,20.5C 79.8333,20.5 82.1667,20.5 84.5,20.5C 84.5,25.8333 84.5,31.1667 84.5,36.5C 83.1667,36.5 81.8333,36.5 80.5,36.5C 80.7017,23.4021 79.7017,23.4021 77.5,36.5C 76.1667,36.5 74.8333,36.5 73.5,36.5C 71.2528,23.382 70.2528,23.382 70.5,36.5C 69.1667,36.5 67.8333,36.5 66.5,36.5C 66.5,31.1667 66.5,25.8333 66.5,20.5C 68.8333,20.5 71.1667,20.5 73.5,20.5C 73.9926,22.8056 74.3259,25.139 74.5,27.5 Z"/></g>
<g><path style="opacity:1" fill="#e48d9f" d="M 74.5,27.5 C 75.1667,27.5 75.8333,27.5 76.5,27.5C 75.8333,30.1667 75.1667,30.1667 74.5,27.5 Z"/></g>
<g><path style="opacity:1" fill="#ca284b" d="M 39.5,18.5 C 39.5,25.5 39.5,32.5 39.5,39.5C 32.8333,39.5 26.1667,39.5 19.5,39.5C 19.5,32.5 19.5,25.5 19.5,18.5C 26.1667,18.5 32.8333,18.5 39.5,18.5 Z"/></g>
<g><path style="opacity:1" fill="#fcf4f5" d="M 21.5,20.5 C 23.1667,20.5 24.8333,20.5 26.5,20.5C 26.3345,24.5138 26.5012,28.5138 27,32.5C 28.3333,33.8333 29.6667,33.8333 31,32.5C 31.4988,28.5138 31.6655,24.5138 31.5,20.5C 33.1667,20.5 34.8333,20.5 36.5,20.5C 36.6657,24.8461 36.499,29.1794 36,33.5C 31.3333,37.5 26.6667,37.5 22,33.5C 21.501,29.1794 21.3343,24.8461 21.5,20.5 Z"/></g>
<g><path style="opacity:1" fill="#cb284a" d="M 42.5,18.5 C 48.5,18.5 54.5,18.5 60.5,18.5C 60.5,25.5 60.5,32.5 60.5,39.5C 54.5,39.5 48.5,39.5 42.5,39.5C 42.5,32.5 42.5,25.5 42.5,18.5 Z"/></g>
<g><path style="opacity:1" fill="#df7e92" d="M 54.5,30.5 C 53.4324,31.4345 52.099,31.7678 50.5,31.5C 50.7845,33.4147 50.4511,35.0813 49.5,36.5C 49.5,34.5 49.5,32.5 49.5,30.5C 51.1667,30.5 52.8333,30.5 54.5,30.5 Z"/></g>
<g><path style="opacity:1" fill="#fcf5f6" d="M 54.5,30.5 C 52.8333,30.5 51.1667,30.5 49.5,30.5C 49.5,32.5 49.5,34.5 49.5,36.5C 48.1667,36.5 46.8333,36.5 45.5,36.5C 45.5,31.1667 45.5,25.8333 45.5,20.5C 49.9113,20.021 54.078,20.6876 58,22.5C 59.4207,26.5058 58.254,29.1724 54.5,30.5 Z"/></g>
<g><path style="opacity:1" fill="#d24b60" d="M 49.5,23.5 C 52.5,23.1667 53.8333,24.5 53.5,27.5C 52.1667,27.5 50.8333,27.5 49.5,27.5C 49.5,26.1667 49.5,24.8333 49.5,23.5 Z"/></g>
<g><path style="opacity:1" fill="#3c4042" d="M 151.5,46.5 C 151.5,49.1667 151.5,51.8333 151.5,54.5C 152.791,54.2627 153.791,54.596 154.5,55.5C 153.5,55.5 152.5,55.5 151.5,55.5C 151.5,57.8333 151.5,60.1667 151.5,62.5C 147.84,62.8412 144.507,62.1745 141.5,60.5C 144.482,60.9629 147.482,61.2962 150.5,61.5C 150.116,51.7783 150.449,44.7783 151.5,40.5C 155.5,41.1667 155.5,41.8333 151.5,42.5C 151.5,43.8333 151.5,45.1667 151.5,46.5 Z"/></g>
<g><path style="opacity:1" fill="#c71e45" d="M 91.5,46.5 C 91.5,85.1667 91.5,123.833 91.5,162.5C 89.8352,126.678 88.8352,90.6783 88.5,54.5C 85.7928,52.1568 83.1261,49.8235 80.5,47.5C 84.0991,46.6561 87.7657,46.3227 91.5,46.5 Z"/></g>
<g><path style="opacity:0.592" fill="#d9778a" d="M 257.5,35.5 C 276.326,34.503 295.326,34.1697 314.5,34.5C 314.5,56.8333 314.5,79.1667 314.5,101.5C 295.167,101.5 275.833,101.5 256.5,101.5C 256.169,79.327 256.503,57.327 257.5,35.5 Z"/></g>
<g><path style="opacity:1" fill="#c9254b" d="M 257.5,35.5 C 276.167,35.5 294.833,35.5 313.5,35.5C 313.5,57.1667 313.5,78.8333 313.5,100.5C 294.833,100.5 276.167,100.5 257.5,100.5C 257.5,78.8333 257.5,57.1667 257.5,35.5 Z"/></g>
<g><path style="opacity:1" fill="#fefdfd" d="M 291.5,73.5 C 287.833,73.5 284.167,73.5 280.5,73.5C 280.5,79.5 280.5,85.5 280.5,91.5C 275.833,91.5 271.167,91.5 266.5,91.5C 266.5,75.8333 266.5,60.1667 266.5,44.5C 276.506,44.3335 286.506,44.5002 296.5,45C 305.044,48.2524 308.211,54.419 306,63.5C 303.557,70.1489 298.724,73.4822 291.5,73.5 Z"/></g>
<g><path style="opacity:1" fill="#ca2c4d" d="M 287.5,54.5 C 291.976,54.8222 293.476,57.1556 292,61.5C 289.016,64.1001 285.516,65.1001 281.5,64.5C 281.5,61.1667 281.5,57.8333 281.5,54.5C 283.5,54.5 285.5,54.5 287.5,54.5 Z"/></g>
<g><path style="opacity:1" fill="#e595a5" d="M 287.5,54.5 C 285.5,54.5 283.5,54.5 281.5,54.5C 281.5,57.8333 281.5,61.1667 281.5,64.5C 280.518,61.0381 280.185,57.3714 280.5,53.5C 283.059,53.1984 285.393,53.5318 287.5,54.5 Z"/></g>
<g><path style="opacity:1" fill="#c92549" d="M 55.5,59.5 C 63.8258,66.4931 71.8258,73.8264 79.5,81.5C 79.5,108.167 79.5,134.833 79.5,161.5C 79.1667,161.5 78.8333,161.5 78.5,161.5C 77.8431,138.402 77.1764,115.402 76.5,92.5C 67.1401,83.4725 57.8068,74.4725 48.5,65.5C 50.8333,63.5 53.1667,61.5 55.5,59.5 Z"/></g>
<g><path style="opacity:1" fill="#fcf6f7" d="M 100.5,92.5 C 99.5024,115.994 99.1691,139.661 99.5,163.5C 100.128,170.913 99.4612,177.913 97.5,184.5C 97.5,177.5 97.5,170.5 97.5,163.5C 97.3334,136.831 97.5,110.165 98,83.5C 101.167,81 104.333,78.5 107.5,76C 111.5,75.3333 115.5,75.3333 119.5,76C 113.295,81.7092 106.961,87.2092 100.5,92.5 Z"/></g>
<g><path style="opacity:1" fill="#fcf6f7" d="M 106.5,111.5 C 105.503,128.325 105.17,145.325 105.5,162.5C 106.126,169.584 105.459,176.25 103.5,182.5C 103.5,176.167 103.5,169.833 103.5,163.5C 103.5,163.167 103.5,162.833 103.5,162.5C 103.333,142.497 103.5,122.497 104,102.5C 112.879,93.3214 122.045,84.4881 131.5,76C 135.5,75.3333 139.5,75.3333 143.5,76C 130.968,87.7002 118.635,99.5336 106.5,111.5 Z"/></g>
<g><path style="opacity:1" fill="#fbf5f6" d="M 154.5,90.5 C 140.562,103.267 126.729,116.267 113,129.5C 112.5,139.828 112.334,150.161 112.5,160.5C 112.177,167.022 112.51,173.355 113.5,179.5C 113.027,180.906 112.027,181.573 110.5,181.5C 109.54,174.922 109.207,168.255 109.5,161.5C 109.333,148.163 109.5,134.829 110,121.5C 125.366,106.966 140.533,92.2996 155.5,77.5C 159.943,75.5344 164.61,75.0344 169.5,76C 164.605,81.064 159.605,85.8974 154.5,90.5 Z"/></g>
<g><path style="opacity:1" fill="#e597a6" d="M 291.5,73.5 C 288.375,74.4794 285.042,74.8128 281.5,74.5C 281.822,80.358 281.489,86.0247 280.5,91.5C 280.5,85.5 280.5,79.5 280.5,73.5C 284.167,73.5 287.833,73.5 291.5,73.5 Z"/></g>
<g><path style="opacity:1" fill="#e69caa" d="M 343.5,59.5 C 342.505,70.3206 342.172,81.3206 342.5,92.5C 338.298,92.8168 334.298,92.4834 330.5,91.5C 334.167,91.5 337.833,91.5 341.5,91.5C 341.333,79.8286 341.5,68.1619 342,56.5C 343.039,57.2438 343.539,58.2438 343.5,59.5 Z"/></g>
<g><path style="opacity:1" fill="#c9244b" d="M 42.5,72.5 C 52.8133,81.8112 63.1467,91.1446 73.5,100.5C 73.8304,120.34 73.4971,140.007 72.5,159.5C 60.88,155.38 51.38,148.38 44,138.5C 30.6086,116.784 30.1086,94.7843 42.5,72.5 Z"/></g>
<g><path style="opacity:1" fill="#ce395c" d="M 88.5,54.5 C 88.8352,90.6783 89.8352,126.678 91.5,162.5C 91.5,162.833 91.5,163.167 91.5,163.5C 90.5,163.5 89.5,163.5 88.5,163.5C 88.5,127.167 88.5,90.8333 88.5,54.5 Z"/></g>
<g><path style="opacity:1" fill="#c9264b" d="M 94.5,46.5 C 97.1667,46.5 99.8333,46.5 102.5,46.5C 103.629,48.6282 103.796,50.9615 103,53.5C 99.5899,54.8741 99.7566,55.5408 103.5,55.5C 103.5,57.8333 103.5,60.1667 103.5,62.5C 105.735,62.7947 107.735,62.4614 109.5,61.5C 110.833,61.1667 112.167,60.8333 113.5,60.5C 118.383,60.0018 122.883,61.0018 127,63.5C 127.765,63.4301 128.265,63.0967 128.5,62.5C 132.342,60.9983 136.342,60.3316 140.5,60.5C 140.833,60.5 141.167,60.5 141.5,60.5C 144.507,62.1745 147.84,62.8412 151.5,62.5C 151.5,60.1667 151.5,57.8333 151.5,55.5C 152.5,55.5 153.5,55.5 154.5,55.5C 154.833,55.5 155.167,55.5 155.5,55.5C 155.5,62.8333 155.5,70.1667 155.5,77.5C 140.533,92.2996 125.366,106.966 110,121.5C 109.5,134.829 109.333,148.163 109.5,161.5C 109.167,161.5 108.833,161.5 108.5,161.5C 106.515,145.2 105.848,128.534 106.5,111.5C 118.635,99.5336 130.968,87.7002 143.5,76C 139.5,75.3333 135.5,75.3333 131.5,76C 122.045,84.4881 112.879,93.3214 104,102.5C 103.5,122.497 103.333,142.497 103.5,162.5C 102.5,162.5 101.5,162.5 100.5,162.5C 100.5,139.167 100.5,115.833 100.5,92.5C 106.961,87.2092 113.295,81.7092 119.5,76C 115.5,75.3333 111.5,75.3333 107.5,76C 104.333,78.5 101.167,81 98,83.5C 97.5,110.165 97.3334,136.831 97.5,163.5C 96.5,163.5 95.5,163.5 94.5,163.5C 94.5,124.5 94.5,85.5 94.5,46.5 Z"/></g>
<g><path style="opacity:1" fill="#55393f" d="M 140.5,60.5 C 136.342,60.3316 132.342,60.9983 128.5,62.5C 129.058,61.2101 130.058,60.3768 131.5,60C 134.696,59.1955 137.696,59.3622 140.5,60.5 Z"/></g>
<g><path style="opacity:1" fill="#544246" d="M 113.5,60.5 C 118.694,58.9678 123.694,59.6344 128.5,62.5C 128.265,63.0967 127.765,63.4301 127,63.5C 122.883,61.0018 118.383,60.0018 113.5,60.5 Z"/></g>
<g><path style="opacity:1" fill="#d45570" d="M 76.5,92.5 C 77.1764,115.402 77.8431,138.402 78.5,161.5C 77.8333,161.5 77.1667,161.5 76.5,161.5C 76.5,138.5 76.5,115.5 76.5,92.5 Z"/></g>
<g><path style="opacity:0.435" fill="#da8295" d="M 249.5,35.5 C 250.497,57.327 250.831,79.327 250.5,101.5C 229.66,101.831 208.993,101.497 188.5,100.5C 208.833,100.5 229.167,100.5 249.5,100.5C 249.5,78.8333 249.5,57.1667 249.5,35.5 Z"/></g>
<g><path style="opacity:0.651" fill="#ce4061" d="M 321.5,35.5 C 321.833,35.5 322.167,35.5 322.5,35.5C 322.5,57.1667 322.5,78.8333 322.5,100.5C 345.833,100.5 369.167,100.5 392.5,100.5C 392.5,100.833 392.5,101.167 392.5,101.5C 368.833,101.5 345.167,101.5 321.5,101.5C 321.5,79.5 321.5,57.5 321.5,35.5 Z"/></g>
<g><path style="opacity:1" fill="#de798f" d="M 73.5,100.5 C 74.4971,120.326 74.8305,140.326 74.5,160.5C 74.1667,160.5 73.8333,160.5 73.5,160.5C 72.8333,160.5 72.5,160.167 72.5,159.5C 73.4971,140.007 73.8304,120.34 73.5,100.5 Z"/></g>
<g><path style="opacity:1" fill="#c9244b" d="M 154.5,90.5 C 155.655,97.3209 155.821,104.321 155,111.5C 150.67,136.332 136.504,152.665 112.5,160.5C 112.334,150.161 112.5,139.828 113,129.5C 126.729,116.267 140.562,103.267 154.5,90.5 Z"/></g>
<g><path style="opacity:0.38" fill="#807a7a" d="M 205.5,120.5 C 205.665,117.482 205.498,114.482 205,111.5C 204.667,113.167 204.333,114.833 204,116.5C 203.283,115.956 202.783,115.289 202.5,114.5C 203.29,113.391 203.79,112.058 204,110.5C 204.667,109.167 205.333,109.167 206,110.5C 206.808,114.027 206.641,117.36 205.5,120.5 Z"/></g>
<g><path style="opacity:0.801" fill="#565151" d="M 221.5,109.5 C 223.857,109.337 226.19,109.503 228.5,110C 228.957,110.414 229.291,110.914 229.5,111.5C 227.577,112.308 225.577,112.808 223.5,113C 225.134,113.494 226.801,113.66 228.5,113.5C 228.5,114.5 228.5,115.5 228.5,116.5C 226.712,116.215 225.045,116.548 223.5,117.5C 225.5,118.167 227.5,118.833 229.5,119.5C 226.894,120.652 224.227,120.818 221.5,120C 221.343,116.843 221.343,113.343 221.5,109.5 Z"/></g>
<g><path style="opacity:0.594" fill="#676263" d="M 329.5,110.5 C 330.209,109.596 331.209,109.263 332.5,109.5C 332.815,113.371 332.482,117.038 331.5,120.5C 332.069,116.671 331.402,113.337 329.5,110.5 Z"/></g>
<g><path style="opacity:0.212" fill="#8a8485" d="M 190.5,118.5 C 189.686,116.369 189.186,114.036 189,111.5C 188.503,114.146 188.336,116.813 188.5,119.5C 187.842,118.207 187.508,116.707 187.5,115C 187.423,112.949 187.923,111.116 189,109.5C 190.392,112.278 190.892,115.278 190.5,118.5 Z"/></g>
<g><path style="opacity:1" fill="#b7b2b2" d="M 246.5,113.5 C 246.5,113.833 246.5,114.167 246.5,114.5C 242.839,114.574 242.172,113.574 244.5,111.5C 245.522,111.855 246.189,112.522 246.5,113.5 Z"/></g>
<g><path style="opacity:0.749" fill="#4a4545" d="M 289.5,109.5 C 292.167,109.5 294.833,109.5 297.5,109.5C 297.5,110.5 297.5,111.5 297.5,112.5C 296.5,112.5 295.5,112.5 294.5,112.5C 293.833,123.167 293.167,123.167 292.5,112.5C 291.5,112.5 290.5,112.5 289.5,112.5C 289.5,111.5 289.5,110.5 289.5,109.5 Z"/></g>
<g><path style="opacity:0.796" fill="#524d4d" d="M 370.5,111.5 C 367.919,114.354 366.252,117.354 365.5,120.5C 364.488,116.975 362.821,113.808 360.5,111C 361.025,110.308 361.692,109.808 362.5,109.5C 363.48,110.981 364.647,112.315 366,113.5C 366.637,111.697 367.803,110.364 369.5,109.5C 370.298,109.957 370.631,110.624 370.5,111.5 Z"/></g>
<g><path style="opacity:0.467" fill="#696465" d="M 211.5,110.5 C 211.5,110.833 211.5,111.167 211.5,111.5C 210.523,114.287 210.19,117.287 210.5,120.5C 209.5,120.5 208.5,120.5 207.5,120.5C 207.335,117.15 207.502,113.817 208,110.5C 208.986,109.829 210.153,109.829 211.5,110.5 Z"/></g>
<g><path style="opacity:1" fill="#464243" d="M 337.5,109.5 C 340.466,112.073 342.466,115.406 343.5,119.5C 343,119.833 342.5,120.167 342,120.5C 339.485,117.923 336.985,117.923 334.5,120.5C 334.033,116.549 335.033,112.882 337.5,109.5 Z"/></g>
<g><path style="opacity:0.086" fill="#c1b8b9" d="M 375.5,112.5 C 375.5,113.167 375.833,113.5 376.5,113.5C 376.5,113.833 376.5,114.167 376.5,114.5C 373.54,113.968 373.207,113.301 375.5,112.5 Z"/></g>
<g><path style="opacity:0.912" fill="#4d4949" d="M 211.5,111.5 C 211.5,111.167 211.5,110.833 211.5,110.5C 212.329,109.668 213.162,110.001 214,111.5C 214.471,113.246 215.138,114.913 216,116.5C 216.133,113.586 217.3,111.253 219.5,109.5C 219.833,110 220.167,110.5 220.5,111C 217.595,123.476 214.595,123.643 211.5,111.5 Z"/></g>
<g><path style="opacity:1" fill="#4f4a4b" d="M 230.5,109.5 C 232.527,109.338 234.527,109.505 236.5,110C 239.993,111.478 240.326,113.478 237.5,116C 239.312,117.627 239.479,119.127 238,120.5C 236.674,119.201 235.34,117.868 234,116.5C 233.51,117.793 233.343,119.127 233.5,120.5C 232.5,120.5 231.5,120.5 230.5,120.5C 230.5,116.833 230.5,113.167 230.5,109.5 Z"/></g>
<g><path style="opacity:1" fill="#dfd9d9" d="M 233.5,112.5 C 234.675,112.281 235.675,112.614 236.5,113.5C 234.948,114.798 233.948,114.465 233.5,112.5 Z"/></g>
<g><path style="opacity:0.908" fill="#433e3e" d="M 246.5,113.5 C 246.189,112.522 245.522,111.855 244.5,111.5C 242.172,113.574 242.839,114.574 246.5,114.5C 249.416,117.544 248.749,119.877 244.5,121.5C 242.503,121.014 241.169,119.847 240.5,118C 240.836,116.97 241.503,116.47 242.5,116.5C 242.5,116.833 242.5,117.167 242.5,117.5C 243.708,118.782 245.042,118.782 246.5,117.5C 245.423,116.295 244.09,115.628 242.5,115.5C 240.418,114.415 240.084,112.915 241.5,111C 244.455,108.709 246.788,109.209 248.5,112.5C 248.043,113.298 247.376,113.631 246.5,113.5 Z"/></g>
<g><path style="opacity:0.824" fill="#4c4748" d="M 270.5,109.5 C 273.272,109.22 275.772,109.887 278,111.5C 279.177,115.492 277.677,117.158 273.5,116.5C 273.5,117.833 273.5,119.167 273.5,120.5C 272.5,120.5 271.5,120.5 270.5,120.5C 270.5,116.833 270.5,113.167 270.5,109.5 Z"/></g>
<g><path style="opacity:1" fill="#d1cbcb" d="M 272.5,112.5 C 273.978,112.238 275.311,112.571 276.5,113.5C 275.833,113.833 275.167,114.167 274.5,114.5C 273.287,114.253 272.62,113.586 272.5,112.5 Z"/></g>
<g><path style="opacity:0.804" fill="#403b3c" d="M 202.5,114.5 C 202.783,115.289 203.283,115.956 204,116.5C 204.333,114.833 204.667,113.167 205,111.5C 205.498,114.482 205.665,117.482 205.5,120.5C 203.29,120.106 201.957,118.773 201.5,116.5C 201.217,115.711 200.717,115.044 200,114.5C 199.505,116.473 199.338,118.473 199.5,120.5C 198.223,119.306 197.556,117.64 197.5,115.5C 197.789,107.872 199.456,107.538 202.5,114.5 Z"/></g>
<g><path style="opacity:0.729" fill="#4c4647" d="M 253.5,109.5 C 256.167,109.5 258.833,109.5 261.5,109.5C 261.5,110.5 261.5,111.5 261.5,112.5C 260.5,112.5 259.5,112.5 258.5,112.5C 257.833,123.167 257.167,123.167 256.5,112.5C 255.5,112.5 254.5,112.5 253.5,112.5C 253.5,111.5 253.5,110.5 253.5,109.5 Z"/></g>
<g><path style="opacity:0.316" fill="#7f7a7b" d="M 287.5,119.5 C 287.664,116.813 287.497,114.146 287,111.5C 286.814,114.036 286.314,116.369 285.5,118.5C 285.108,115.278 285.608,112.278 287,109.5C 288.077,111.116 288.577,112.949 288.5,115C 288.492,116.707 288.158,118.207 287.5,119.5 Z"/></g>
<g><path style="opacity:1" fill="#4b4647" d="M 329.5,110.5 C 331.402,113.337 332.069,116.671 331.5,120.5C 330.732,119.737 330.232,118.737 330,117.5C 329.411,119.863 327.911,120.863 325.5,120.5C 325.443,115.318 324.776,115.318 323.5,120.5C 322.511,116.893 322.177,113.226 322.5,109.5C 325.766,109.433 327.266,111.099 327,114.5C 327.934,113.142 328.768,111.808 329.5,110.5 Z"/></g>
<g><path style="opacity:1" fill="#b8b3b3" d="M 337.5,113.5 C 340.3,115.476 339.967,116.309 336.5,116C 337.252,115.329 337.586,114.496 337.5,113.5 Z"/></g>
<g><path style="opacity:0.824" fill="#514d4d" d="M 376.5,113.5 C 375.833,113.5 375.5,113.167 375.5,112.5C 373.207,113.301 373.54,113.968 376.5,114.5C 379.492,115.132 380.159,116.799 378.5,119.5C 377.372,120.262 376.205,120.929 375,121.5C 373.933,120.809 372.766,120.309 371.5,120C 370.269,118.817 370.269,117.651 371.5,116.5C 372.968,118.333 374.635,118.666 376.5,117.5C 374.887,116.573 373.221,115.739 371.5,115C 370.663,113.989 370.33,112.822 370.5,111.5C 373.443,108.773 376.11,108.939 378.5,112C 378.164,113.03 377.497,113.53 376.5,113.5 Z"/></g>
<g><path style="opacity:0.824" fill="#443f40" d="M 380.5,109.5 C 382.439,110.014 383.439,111.347 383.5,113.5C 383.085,115.909 382.418,118.242 381.5,120.5C 380.511,116.893 380.177,113.226 380.5,109.5 Z"/></g>
<g><path style="opacity:0.405" fill="#e2ddde" d="M 14.5,103.5 C 16.8387,115.505 21.1721,126.838 27.5,137.5C 18.7349,127.953 14.4016,116.619 14.5,103.5 Z"/></g>
<g><path style="opacity:1" fill="#edbac5" d="M 106.5,111.5 C 105.848,128.534 106.515,145.2 108.5,161.5C 108.158,162.338 107.492,162.672 106.5,162.5C 106.167,162.5 105.833,162.5 105.5,162.5C 105.17,145.325 105.503,128.325 106.5,111.5 Z"/></g>
<g><path style="opacity:0.318" fill="#e0dcdd" d="M 171.5,107.5 C 171.638,116.531 168.971,124.531 163.5,131.5C 167.105,123.718 169.772,115.718 171.5,107.5 Z"/></g>
<g><path style="opacity:0.231" fill="#a19b9b" d="M 201.5,116.5 C 200.833,117.833 200.167,119.167 199.5,120.5C 199.338,118.473 199.505,116.473 200,114.5C 200.717,115.044 201.217,115.711 201.5,116.5 Z"/></g>
<g><path style="opacity:1" fill="#cec6c7" d="M 242.5,116.5 C 242.5,116.167 242.5,115.833 242.5,115.5C 244.09,115.628 245.423,116.295 246.5,117.5C 245.042,118.782 243.708,118.782 242.5,117.5C 243.833,117.167 243.833,116.833 242.5,116.5 Z"/></g>
<g><path style="opacity:1" fill="#534e4f" d="M 250.5,109.5 C 252.414,112.684 253.08,116.351 252.5,120.5C 251.5,120.5 250.5,120.5 249.5,120.5C 249.244,116.731 249.577,113.064 250.5,109.5 Z"/></g>
<g><path style="opacity:0.188" fill="#777272" d="M 263.5,109.5 C 264.117,109.611 264.617,109.944 265,110.5C 265.498,113.817 265.665,117.15 265.5,120.5C 264.5,120.5 263.5,120.5 262.5,120.5C 262.244,116.731 262.577,113.064 263.5,109.5 Z"/></g>
<g><path style="opacity:0.908" fill="#413c3c" d="M 356.5,109.5 C 357.458,109.953 358.292,110.619 359,111.5C 360.037,114.405 361.204,117.239 362.5,120C 360.415,120.529 358.582,120.029 357,118.5C 353.096,120.312 348.929,120.978 344.5,120.5C 344.18,117.102 344.513,113.768 345.5,110.5C 346.48,113.086 346.813,115.753 346.5,118.5C 348.604,118.799 350.604,118.466 352.5,117.5C 353.32,114.528 354.653,111.861 356.5,109.5 Z"/></g>
<g><path style="opacity:1" fill="#a39e9e" d="M 356.5,113.5 C 358.625,114.368 358.791,115.368 357,116.5C 355.317,115.824 355.15,114.824 356.5,113.5 Z"/></g>
<g><path style="opacity:1" fill="#474343" d="M 387.5,109.5 C 388.496,109.414 389.329,109.748 390,110.5C 391.474,113.756 392.64,117.089 393.5,120.5C 391.723,120.214 390.056,119.547 388.5,118.5C 387.259,119.037 386.092,119.704 385,120.5C 384.5,120.167 384,119.833 383.5,119.5C 384.849,116.141 386.182,112.808 387.5,109.5 Z"/></g>
<g><path style="opacity:1" fill="#c0babb" d="M 387.5,113.5 C 389.465,113.948 389.798,114.948 388.5,116.5C 387.614,115.675 387.281,114.675 387.5,113.5 Z"/></g>
<g><path style="opacity:1" fill="#f1cdd3" d="M 100.5,92.5 C 100.5,115.833 100.5,139.167 100.5,162.5C 101.5,162.5 102.5,162.5 103.5,162.5C 103.5,162.833 103.5,163.167 103.5,163.5C 102.5,163.5 101.5,163.5 100.5,163.5C 100.167,163.5 99.8333,163.5 99.5,163.5C 99.1691,139.661 99.5024,115.994 100.5,92.5 Z"/></g>
<g><path style="opacity:0.824" fill="#504b4c" d="M 188.5,119.5 C 188.336,116.813 188.503,114.146 189,111.5C 189.186,114.036 189.686,116.369 190.5,118.5C 191.5,118.5 192.5,118.5 193.5,118.5C 193.183,115.428 193.516,112.428 194.5,109.5C 195.086,109.709 195.586,110.043 196,110.5C 196.741,113.562 196.575,116.562 195.5,119.5C 192.996,121.975 190.662,121.975 188.5,119.5 Z"/></g>
<g><path style="opacity:0.816" fill="#4f4a4b" d="M 285.5,118.5 C 286.314,116.369 286.814,114.036 287,111.5C 287.497,114.146 287.664,116.813 287.5,119.5C 285.338,121.975 283.004,121.975 280.5,119.5C 279.022,116.024 279.188,112.691 281,109.5C 282.392,112.278 282.892,115.278 282.5,118.5C 283.5,118.5 284.5,118.5 285.5,118.5 Z"/></g>
<g><path style="opacity:0.816" fill="#4e4949" d="M 299.5,109.5 C 302.272,109.22 304.772,109.887 307,111.5C 307.711,113.367 307.211,114.867 305.5,116C 306.211,117.255 307.044,118.421 308,119.5C 309.104,115.833 310.771,112.5 313,109.5C 315.216,112.763 317.049,116.263 318.5,120C 316.415,120.529 314.582,120.029 313,118.5C 308.652,121.607 304.986,120.94 302,116.5C 301.51,117.793 301.343,119.127 301.5,120.5C 300.5,120.5 299.5,120.5 298.5,120.5C 298.244,116.731 298.577,113.064 299.5,109.5 Z"/></g>
<g><path style="opacity:1" fill="#9e989a" d="M 312.5,113.5 C 314.625,114.368 314.791,115.368 313,116.5C 311.317,115.824 311.15,114.824 312.5,113.5 Z"/></g>
<g><path style="opacity:1" fill="#dfd9d9" d="M 301.5,112.5 C 302.675,112.281 303.675,112.614 304.5,113.5C 302.948,114.798 301.948,114.465 301.5,112.5 Z"/></g>
<g><path style="opacity:1" fill="#9aa7ae" d="M 188.5,127.5 C 256.833,127.5 325.167,127.5 393.5,127.5C 393.5,132.5 393.5,137.5 393.5,142.5C 325.167,142.5 256.833,142.5 188.5,142.5C 188.5,137.5 188.5,132.5 188.5,127.5 Z"/></g>
<g><path style="opacity:1" fill="#e6e9eb" d="M 233.5,131.5 C 234.5,131.5 235.5,131.5 236.5,131.5C 236.5,134.167 236.5,136.833 236.5,139.5C 235.5,139.5 234.5,139.5 233.5,139.5C 233.5,136.833 233.5,134.167 233.5,131.5 Z"/></g>
<g><path style="opacity:1" fill="#f1f4f5" d="M 347.5,132.5 C 350.77,132.679 352.437,134.512 352.5,138C 352.167,138.5 351.833,139 351.5,139.5C 349.833,138.167 348.167,138.167 346.5,139.5C 345.721,137.115 346.054,134.782 347.5,132.5 Z"/></g>
<g><path style="opacity:1" fill="#f2f4f5" d="M 256.5,132.5 C 257.5,132.5 258.5,132.5 259.5,132.5C 259.833,136.5 260.167,136.5 260.5,132.5C 261.833,132.5 263.167,132.5 264.5,132.5C 264.808,134.924 264.474,137.257 263.5,139.5C 262.749,138.624 262.249,137.624 262,136.5C 260.525,140.155 259.191,139.822 258,135.5C 257.667,136.833 257.333,138.167 257,139.5C 256.503,137.19 256.337,134.857 256.5,132.5 Z"/></g>
<g><path style="opacity:1" fill="#fcfdfd" d="M 387.5,132.5 C 388.725,133.152 389.392,134.319 389.5,136C 389.167,137.167 388.833,138.333 388.5,139.5C 387.526,137.257 387.192,134.924 387.5,132.5 Z"/></g>
<g><path style="opacity:1" fill="#f0f2f4" d="M 373.5,133.5 C 375.628,132.371 377.961,132.204 380.5,133C 378.75,134.754 378.083,136.921 378.5,139.5C 377.5,139.5 376.5,139.5 375.5,139.5C 375.975,136.918 375.308,134.918 373.5,133.5 Z"/></g>
<g><path style="opacity:1" fill="#f4f6f7" d="M 359.5,132.5 C 360.75,132.577 361.583,133.244 362,134.5C 364.734,131.644 365.9,131.811 365.5,135C 368.392,139.778 367.392,140.611 362.5,137.5C 361.833,138.167 361.167,138.833 360.5,139.5C 359.526,137.257 359.192,134.924 359.5,132.5 Z"/></g>
<g><path style="opacity:1" fill="#eaedef" d="M 331.5,131.5 C 337.905,130.406 340.238,133.073 338.5,139.5C 336.167,139.5 333.833,139.5 331.5,139.5C 331.5,136.833 331.5,134.167 331.5,131.5 Z"/></g>
<g><path style="opacity:1" fill="#ebeeef" d="M 317.5,131.5 C 319.792,131.244 321.959,131.577 324,132.5C 323.773,134.574 323.939,136.574 324.5,138.5C 322.675,139.571 321.508,138.904 321,136.5C 320.517,137.448 320.351,138.448 320.5,139.5C 319.5,139.5 318.5,139.5 317.5,139.5C 317.5,136.833 317.5,134.167 317.5,131.5 Z"/></g>
<g><path style="opacity:1" fill="#f0f2f4" d="M 304.5,132.5 C 306.527,132.338 308.527,132.505 310.5,133C 306.639,133.569 306.639,134.402 310.5,135.5C 309.624,136.251 308.624,136.751 307.5,137C 308.938,137.219 310.271,137.719 311.5,138.5C 309.257,139.474 306.924,139.808 304.5,139.5C 304.5,137.167 304.5,134.833 304.5,132.5 Z"/></g>
<g><path style="opacity:1" fill="#e9ecee" d="M 290.5,131.5 C 296.905,130.406 299.238,133.073 297.5,139.5C 295.167,139.5 292.833,139.5 290.5,139.5C 290.5,136.833 290.5,134.167 290.5,131.5 Z"/></g>
<g><path style="opacity:1" fill="#eef0f2" d="M 271.5,131.5 C 272.5,131.5 273.5,131.5 274.5,131.5C 274.613,138.662 275.613,138.995 277.5,132.5C 279.89,138.608 278.056,140.608 272,138.5C 271.503,136.19 271.337,133.857 271.5,131.5 Z"/></g>
<g><path style="opacity:1" fill="#f9fafa" d="M 243.5,132.5 C 245.256,133.552 245.923,135.219 245.5,137.5C 246.978,137.238 248.311,137.571 249.5,138.5C 247.604,139.466 245.604,139.799 243.5,139.5C 243.5,137.167 243.5,134.833 243.5,132.5 Z"/></g>
<g><path style="opacity:1" fill="#f2f4f5" d="M 219.5,132.5 C 221.833,132.5 224.167,132.5 226.5,132.5C 225.691,134.973 225.358,137.306 225.5,139.5C 224.281,138.737 223.281,137.737 222.5,136.5C 221.833,137.5 221.167,138.5 220.5,139.5C 219.526,137.257 219.192,134.924 219.5,132.5 Z"/></g>
<g><path style="opacity:1" fill="#f4f6f6" d="M 206.5,132.5 C 208.527,132.338 210.527,132.505 212.5,133C 207.279,133.542 207.279,134.376 212.5,135.5C 211.271,136.281 209.938,136.781 208.5,137C 209.938,137.219 211.271,137.719 212.5,138.5C 210.604,139.466 208.604,139.799 206.5,139.5C 206.5,137.167 206.5,134.833 206.5,132.5 Z"/></g>
<g><path style="opacity:1" fill="#eef1f2" d="M 192.5,132.5 C 194.833,132.5 197.167,132.5 199.5,132.5C 200.833,138.5 198.5,140.833 192.5,139.5C 192.5,137.167 192.5,134.833 192.5,132.5 Z"/></g>
<g><path style="opacity:0.235" fill="#e3dddf" d="M 162.5,133.5 C 161.044,138.293 158.377,142.293 154.5,145.5C 156.782,141.223 159.449,137.223 162.5,133.5 Z"/></g>
<g><path style="opacity:1" fill="#99a6ae" d="M 108.5,161.5 C 108.833,161.5 109.167,161.5 109.5,161.5C 109.207,168.255 109.54,174.922 110.5,181.5C 109.791,182.404 108.791,182.737 107.5,182.5C 106.509,176.021 106.176,169.354 106.5,162.5C 107.492,162.672 108.158,162.338 108.5,161.5 Z"/></g>
<g><path style="opacity:0.351" fill="#e2dddf" d="M 34.5,146.5 C 42.8923,154.896 51.559,162.896 60.5,170.5C 50.2535,164.255 41.5868,156.255 34.5,146.5 Z"/></g>
<g><path style="opacity:0.714" fill="#e5c6cd" d="M 91.5,46.5 C 91.8347,93.009 92.8347,139.342 94.5,185.5C 95.791,185.737 96.791,185.404 97.5,184.5C 99.4612,177.913 100.128,170.913 99.5,163.5C 99.8333,163.5 100.167,163.5 100.5,163.5C 100.334,170.508 100.5,177.508 101,184.5C 101.995,183.934 102.828,183.267 103.5,182.5C 105.459,176.25 106.126,169.584 105.5,162.5C 105.833,162.5 106.167,162.5 106.5,162.5C 106.176,169.354 106.509,176.021 107.5,182.5C 96.3277,188.235 85.3277,187.735 74.5,181C 71.0595,178.958 68.0595,176.458 65.5,173.5C 67.7991,174.778 70.1324,176.111 72.5,177.5C 73.4954,171.872 73.8288,166.206 73.5,160.5C 73.8333,160.5 74.1667,160.5 74.5,160.5C 73.88,166.926 74.5467,172.926 76.5,178.5C 76.8212,180.048 77.8212,180.715 79.5,180.5C 79.5,174.167 79.5,167.833 79.5,161.5C 79.5,134.833 79.5,108.167 79.5,81.5C 79.8353,115.013 80.8353,148.346 82.5,181.5C 82.8212,183.048 83.8212,183.715 85.5,183.5C 85.5,176.5 85.5,169.5 85.5,162.5C 85.5,129.5 85.5,96.5 85.5,63.5C 86.3326,103.331 86.8326,143.331 87,183.5C 87.3826,184.056 87.8826,184.389 88.5,184.5C 89.209,185.404 90.209,185.737 91.5,185.5C 91.5,178.167 91.5,170.833 91.5,163.5C 91.5,163.167 91.5,162.833 91.5,162.5C 91.5,123.833 91.5,85.1667 91.5,46.5 Z"/></g>
<g><path style="opacity:1" fill="#94a2aa" d="M 100.5,163.5 C 101.5,163.5 102.5,163.5 103.5,163.5C 103.5,169.833 103.5,176.167 103.5,182.5C 102.828,183.267 101.995,183.934 101,184.5C 100.5,177.508 100.334,170.508 100.5,163.5 Z"/></g>
<g><path style="opacity:1" fill="#95a3ab" d="M 88.5,163.5 C 89.5,163.5 90.5,163.5 91.5,163.5C 91.5,170.833 91.5,178.167 91.5,185.5C 90.209,185.737 89.209,185.404 88.5,184.5C 88.5,177.5 88.5,170.5 88.5,163.5 Z"/></g>
<g><path style="opacity:1" fill="#97a4ad" d="M 76.5,161.5 C 77.1667,161.5 77.8333,161.5 78.5,161.5C 78.8333,161.5 79.1667,161.5 79.5,161.5C 79.5,167.833 79.5,174.167 79.5,180.5C 77.8212,180.715 76.8212,180.048 76.5,178.5C 76.5,172.833 76.5,167.167 76.5,161.5 Z"/></g>
<g><path style="opacity:1" fill="#9aa7af" d="M 94.5,163.5 C 95.5,163.5 96.5,163.5 97.5,163.5C 97.5,170.5 97.5,177.5 97.5,184.5C 96.791,185.404 95.791,185.737 94.5,185.5C 94.5,178.167 94.5,170.833 94.5,163.5 Z"/></g>
<g><path style="opacity:1" fill="#96a4ac" d="M 82.5,162.5 C 83.5,162.5 84.5,162.5 85.5,162.5C 85.5,169.5 85.5,176.5 85.5,183.5C 83.8212,183.715 82.8212,183.048 82.5,181.5C 82.5,175.167 82.5,168.833 82.5,162.5 Z"/></g>
<g><path style="opacity:0.429" fill="#ebe3e3" d="M 18.5,199.5 C 17.1667,199.5 15.8333,199.5 14.5,199.5C 14.3691,198.624 14.7025,197.957 15.5,197.5C 16.7387,197.942 17.7387,198.609 18.5,199.5 Z"/></g>
</svg>
